<?xml version="1.0" standalone="no"?>
<!DOCTYPE svg PUBLIC "-//W3C//DTD SVG 1.1//EN" "http://www.w3.org/Graphics/SVG/1.1/DTD/svg11.dtd" >
<svg xmlns="http://www.w3.org/2000/svg">
<metadata>
Created by FontPrep 20130207 at Sat Jul 22 11:06:28 2017
 By Tim roussilhe
Copyright (c) by Binnenland, 2007. All rights reserved. This software may not be reproduced, used, displayed, modified, disclosed or transferred without the express written approval of (Binnenland). 
</metadata>
<defs>
<font id="d8e715701f1edb5dd4e962e412dec082" horiz-adv-x='1024' >
  <font-face 
    font-family="Relevant-Medium"
    font-weight="500"
    font-stretch="normal"
    units-per-em="2048"
    panose-1="2 0 6 6 3 0 0 2 0 4"
    ascent="1536"
    descent="-512"
    x-height="991"
    cap-height="1380"
    bbox="-207 -474 1909 1925"
    underline-thickness="102"
    underline-position="-102"
    unicode-range="U+0020-FB04"
  />
<missing-glyph horiz-adv-x="614" 
 />
    <glyph glyph-name=".notdef" horiz-adv-x="614" 
 />
    <glyph glyph-name=".null" horiz-adv-x="0" 
 />
    <glyph glyph-name="nonmarkingreturn" horiz-adv-x="681" 
 />
    <glyph glyph-name="space" unicode=" " horiz-adv-x="530" 
 />
    <glyph glyph-name="exclam" unicode="!" horiz-adv-x="540" 
d="M170 0v252h199v-252h-199zM168 1380h205l-29 -1009h-149z" />
    <glyph glyph-name="quotedbl" unicode="&#x22;" horiz-adv-x="804" 
d="M471 936v444h176v-444h-176zM158 936v444h176v-444h-176z" />
    <glyph glyph-name="numbersign" unicode="#" horiz-adv-x="1427" 
d="M582 582h249l43 264h-249zM115 418v164h295l43 264h-267v164h293l62 370h170l-60 -370h250l62 370h170l-60 -370h262v-164h-288l-43 -264h260v-164h-287l-66 -418h-174l68 418h-250l-66 -418h-174l68 418h-268z" />
    <glyph glyph-name="dollar" unicode="$" horiz-adv-x="1193" 
d="M909 381q0 124 -95 175q-30 16 -64 28l-42 11q-23 7 -51 13v-444q178 19 234 134q18 37 18 83zM303 1028q0 -100 96 -150q49 -25 98 -39l35 -10v388q-51 -5 -93 -20q-136 -48 -136 -169zM100 1020q0 159 119 264q119 104 313 119v156h125v-156q226 -15 337 -151
q85 -104 102 -265h-209q-9 91 -47 134q-72 82 -183 93v-407q179 -33 282 -91q103 -57 150 -180q25 -66 25 -154q0 -171 -125 -281t-332 -126v-139h-125v139q-237 13 -364 160q-101 117 -115 285h211q14 -162 152 -227q49 -24 116 -29v465l-83 18q-243 53 -325 239
q-24 56 -24 134z" />
    <glyph glyph-name="percent" unicode="%" horiz-adv-x="1636" 
d="M1245 625q-131 0 -131 -254q0 -110 16 -156q35 -98 115 -98q125 0 125 254t-125 254zM952 356q0 315 188 392q44 18 116 18q142 0 215 -128q61 -105 61 -267q0 -304 -184 -379q-44 -18 -116 -18t-128 35q-152 97 -152 347zM391 0l699 1380h155l-696 -1380h-158zM266 1008
q0 -110 16 -156q35 -98 115 -98q129 0 125 254q0 251 -125 254q-131 0 -131 -254zM104 994q0 315 188 391q44 18 116 18t128 -35q148 -94 148 -360q0 -224 -107 -331q-69 -65 -167 -66t-154 35q-152 98 -152 348z" />
    <glyph glyph-name="ampersand" unicode="&#x26;" horiz-adv-x="1286" 
d="M383 1070q0 -80 82 -168l61 -71q88 48 125 84q72 70 72 154q0 112 -104 149q-31 11 -69 11t-70 -13q-97 -41 -97 -146zM301 388q0 -102 66 -167t198 -65t246 96l-332 360q-43 -26 -94 -62q-84 -60 -84 -162zM932 119q-163 -139 -377 -139q-215 0 -332 114t-117 287
t158 294q47 36 98 66l-62 78q-112 141 -112 265t101 224t258 99q158 0 262 -95t102 -237q0 -165 -173 -302q-48 -38 -95 -71l279 -303q65 139 65 355h184q-6 -313 -122 -494l213 -232q23 -24 26 -28h-244z" />
    <glyph glyph-name="quotesingle" unicode="'" horiz-adv-x="491" 
d="M158 936v444h176v-444h-176z" />
    <glyph glyph-name="parenleft" unicode="(" horiz-adv-x="555" 
d="M72 580q0 197 37 355q78 328 237 550h205q-125 -175 -202 -391q-93 -248 -93 -539t147 -623q65 -142 148 -258h-205q-77 106 -137 245q-137 306 -137 661z" />
    <glyph glyph-name="parenright" unicode=")" horiz-adv-x="555" 
d="M297 580q0 97 -20 234t-59 244q-40 108 -86 210t-128 217h203q207 -290 265 -708q36 -284 -33 -581q-70 -297 -232 -522h-203q128 181 200 391q93 258 93 515z" />
    <glyph glyph-name="asterisk" unicode="*" horiz-adv-x="1069" 
d="M119 1139l53 145l281 -102l-2 293h157l2 -291l279 100l61 -145l-282 -103l170 -233l-125 -101l-181 259l-170 -254l-137 92l168 237z" />
    <glyph glyph-name="plus" unicode="+" horiz-adv-x="1089" 
d="M55 469v176h404v408h186v-408h399v-176h-399v-408h-186v408h-404z" />
    <glyph glyph-name="comma" unicode="," horiz-adv-x="512" 
d="M76 -106h35q33 0 48 22t15 80v235h186v-172q0 -183 -92 -248q-66 -45 -192 -30v113z" />
    <glyph glyph-name="hyphen" unicode="-" horiz-adv-x="933" 
d="M145 467v176h646v-176h-646z" />
    <glyph glyph-name="period" unicode="." horiz-adv-x="512" 
d="M158 0v272h202v-272h-202z" />
    <glyph glyph-name="slash" unicode="/" horiz-adv-x="901" 
d="M18 -49l680 1470h187l-680 -1470h-187z" />
    <glyph glyph-name="zero" unicode="0" horiz-adv-x="1089" 
d="M547 1210q-283 0 -283 -524q0 -310 89 -433q70 -95 194 -93q217 0 264 307q14 97 14 219q0 524 -278 524zM166 203q-98 188 -98 476t90 473q71 150 215 212q75 32 171 32q264 1 380 -228q98 -193 98 -475t-90 -473q-115 -244 -381 -246q-265 -1 -385 229z" />
    <glyph glyph-name="one" unicode="1" horiz-adv-x="1089" 
d="M682 1370v-1194h262v-176h-760v176h301v950l-311 -182v211l346 215h162z" />
    <glyph glyph-name="two" unicode="2" horiz-adv-x="1089" 
d="M833 1279q115 -118 114 -302t-172 -372q-48 -52 -97 -99l-340 -322v-2h620v-182h-847v188l245 233l152 150l65 70q172 190 172 320q0 69 -13 111q-42 138 -205 138t-224 -113q-20 -36 -24 -83h-199q14 170 132 275q121 108 313 108q193 0 308 -118z" />
    <glyph glyph-name="three" unicode="3" horiz-adv-x="1089" 
d="M387 645v162h111q106 0 172 57q67 57 67 151t-64 146q-64 51 -155 50q-187 -2 -223 -148h-203q24 153 139 244q116 90 289 90t294 -103q122 -103 122 -288q0 -119 -95 -221q-29 -30 -61 -50q140 -80 184 -215q15 -47 15 -125q0 -79 -37 -161q-75 -166 -250 -229
q-85 -31 -178 -31t-169 25q-149 51 -229 186q-40 67 -57 149h205q21 -84 89 -130t143 -45q137 2 211 72q73 70 73 177t-71 173q-73 64 -183 64h-139z" />
    <glyph glyph-name="four" unicode="4" horiz-adv-x="1089" 
d="M662 477v653l-433 -653h433zM35 299v168l602 903h221v-893h186v-178h-186v-299h-196v299h-627z" />
    <glyph glyph-name="five" unicode="5" horiz-adv-x="1089" 
d="M532 950q214 0 330 -132q117 -132 117 -350t-127 -356q-127 -139 -330 -139q-155 0 -273 84t-163 248h207q35 -103 161 -139q92 -24 158 6q67 29 100 69q68 82 68 225q0 142 -63 220t-189 78q-173 0 -229 -137h-176l78 743h694v-186h-541l-35 -303q97 69 213 69z" />
    <glyph glyph-name="six" unicode="6" horiz-adv-x="1089" 
d="M389 660q-88 -76 -88 -203t72 -213t183 -85t178 73t68 203t-64 206q-65 76 -174 77t-175 -58zM291 786q115 119 293 119q179 0 299 -133t119 -334t-126 -332t-323 -133q-227 0 -347 174t-120 451q0 365 125 582t367 217t348 -193q33 -60 49 -133h-195q-39 139 -207 139
q-240 0 -282 -424z" />
    <glyph glyph-name="seven" unicode="7" horiz-adv-x="1089" 
d="M76 1184v186h885v-172l-553 -1198h-218l562 1184h-676z" />
    <glyph glyph-name="eight" unicode="8" horiz-adv-x="1089" 
d="M376 1166q-67 -56 -67 -152t66 -156q67 -59 169 -59q103 0 168 59q66 59 66 152q0 152 -142 195q-95 29 -185 0q-43 -13 -75 -39zM274 386q0 -107 77 -169q77 -61 196 -61t189 58q79 62 79 171t-70 172q-70 64 -198 66q-67 0 -117 -18q-100 -33 -138 -122
q-18 -43 -18 -97zM76 362q0 241 200 359q-164 117 -164 293q1 175 123 281q121 106 309 106t309 -107q122 -107 122 -282q0 -84 -44 -160t-120 -131q199 -121 203 -332q0 -198 -136 -307t-335 -109t-328 105q-65 52 -102 130t-37 154z" />
    <glyph glyph-name="nine" unicode="9" horiz-adv-x="1089" 
d="M285 934q0 -201 143 -262q90 -38 188 -9q97 30 145 133q25 53 25 120q0 195 -148 271q-93 48 -205 5q-46 -18 -79 -54q-69 -73 -69 -204zM797 584q-115 -119 -294 -119t-298 132t-119 333t125 334t337 133q213 0 334 -174t119 -451q0 -363 -125 -581t-366 -218t-348 193
q-33 60 -49 133h194q40 -141 211 -141q232 0 279 426z" />
    <glyph glyph-name="colon" unicode=":" horiz-adv-x="571" 
d="M182 719v272h203v-272h-203zM182 0v272h203v-272h-203z" />
    <glyph glyph-name="semicolon" unicode=";" horiz-adv-x="546" 
d="M172 719v272h203v-272h-203zM82 -106h35q33 0 48 22t15 80v235h187v-172q0 -182 -93 -248q-66 -45 -192 -30v113z" />
    <glyph glyph-name="less" unicode="&#x3c;" horiz-adv-x="1089" 
d="M94 473v170l899 379v-188l-696 -277l696 -293v-188z" />
    <glyph glyph-name="equal" unicode="=" horiz-adv-x="1089" 
d="M94 649v176h901v-176h-901zM94 276v177h901v-177h-901z" />
    <glyph glyph-name="greater" unicode="&#x3e;" horiz-adv-x="1089" 
d="M96 76v188l697 293l-697 277v188l899 -379v-170z" />
    <glyph glyph-name="question" unicode="?" horiz-adv-x="927" 
d="M330 0v252h198v-252h-198zM737 1282q111 -111 111 -259t-103 -275q-36 -45 -108 -121q-123 -129 -123 -226v-49h-178v60q0 135 125 270l76 81q75 85 96 138q22 54 22 96q0 97 -54 154t-143 57t-147 -54q-59 -54 -65 -140h-195q14 170 127 272q113 103 281 104
q167 1 278 -108z" />
    <glyph glyph-name="at" unicode="@" horiz-adv-x="1976" 
d="M1212 639q0 184 -174 184q-138 0 -226 -139q-89 -139 -89 -333q0 -195 178 -195q128 0 219 133q92 133 92 350zM1430 -25q-202 0 -246 142q-126 -140 -305 -140t-262 117q-84 117 -82 283q0 241 144 432t374 188q63 -1 117 -25t85 -61l15 72h194l-143 -729
q-14 -84 45 -116q18 -11 64 -11t105 30q122 62 177 240q27 89 27 193q0 187 -99 335q-149 223 -448 295t-564 -83q-169 -99 -269 -270q-101 -171 -101 -378q0 -310 215 -531q137 -139 330 -191q97 -27 187 -27q227 0 378 92q49 30 96 68h244q-272 -324 -711 -324
q-119 0 -237 32q-235 64 -405 233t-236 404q-33 117 -33 243q0 247 124 460q124 212 334 336q210 123 462 123q373 0 641 -236q262 -233 262 -589q0 -136 -43 -254q-83 -229 -274 -314q-90 -39 -162 -39z" />
    <glyph glyph-name="A" unicode="A" horiz-adv-x="1224" 
d="M397 532h428l-215 574zM-8 0l524 1380h195l522 -1380h-207l-129 344h-571l-127 -344h-207z" />
    <glyph glyph-name="B" unicode="B" horiz-adv-x="1296" 
d="M963 1008q0 182 -218 182h-391v-383h414q100 0 147 60q48 60 48 141zM354 190h422q110 0 162 66q53 66 53 150q1 84 -35 130q-67 85 -180 85h-422v-431zM152 0v1380h596q210 0 315 -109q104 -109 103 -251q-1 -143 -88 -241q-30 -34 -72 -60q190 -103 190 -309
q0 -159 -96 -274q-113 -136 -322 -136h-626z" />
    <glyph glyph-name="C" unicode="C" horiz-adv-x="1271" 
d="M659 166q280 0 351 260h207q-33 -202 -179 -326q-146 -123 -379 -125q-280 0 -430 193q-151 193 -151 525t152 522t432 190q230 0 374 -123t176 -317h-208q-41 178 -213 232q-57 17 -141 17q-178 -1 -273 -137t-95 -388q1 -251 94 -387t283 -136z" />
    <glyph glyph-name="D" unicode="D" horiz-adv-x="1331" 
d="M672 190q377 0 377 519q0 341 -214 446q-71 35 -167 35h-314v-1000h318zM152 0v1380h516q282 0 435 -187q152 -187 151 -499q-1 -313 -153 -504q-152 -190 -437 -190h-512z" />
    <glyph glyph-name="E" unicode="E" horiz-adv-x="1179" 
d="M152 0v1380h944v-190h-742v-391h611v-191h-611v-418h742v-190h-944z" />
    <glyph glyph-name="F" unicode="F" horiz-adv-x="1116" 
d="M152 0v1380h921v-190h-719v-391h594v-191h-594v-608h-202z" />
    <glyph glyph-name="G" unicode="G" horiz-adv-x="1314" 
d="M670 1405q224 0 369 -123q144 -123 173 -317h-206q-41 178 -210 232q-56 17 -140 17q-181 -1 -278 -136t-96 -388q1 -254 100 -390t282 -136t267 100q85 100 87 256v51h-430v189h633v-242q0 -237 -150 -391t-417 -154t-421 193q-155 193 -155 527t153 523
q154 189 439 189z" />
    <glyph glyph-name="H" unicode="H" horiz-adv-x="1318" 
d="M152 0v1380h202v-581h611v581h202v-1380h-202v608h-611v-608h-202z" />
    <glyph glyph-name="I" unicode="I" horiz-adv-x="505" 
d="M152 0v1380h202v-1380h-202z" />
    <glyph glyph-name="J" unicode="J" horiz-adv-x="915" 
d="M571 381v999h203v-999q0 -172 -101 -288t-292 -117q-190 -1 -293 112t-111 281h203q2 -81 55 -143t145 -62q93 0 142 59q49 60 49 158z" />
    <glyph glyph-name="K" unicode="K" horiz-adv-x="1257" 
d="M152 0v1380h202v-661l594 661h258l-504 -551l553 -829h-241l-449 680l-211 -231v-449h-202z" />
    <glyph glyph-name="L" unicode="L" horiz-adv-x="1060" 
d="M152 0v1380h202v-1190h711v-190h-913z" />
    <glyph glyph-name="M" unicode="M" horiz-adv-x="1605" 
d="M152 0v1380h225l426 -1003l426 1003h225v-1380h-203v969l-366 -830h-164l-367 830v-969h-202z" />
    <glyph glyph-name="N" unicode="N" 
d="M152 0v1380h202l613 -1011v1011h202v-1380h-202l-613 1016v-1016h-202z" />
    <glyph glyph-name="O" unicode="O" 
d="M657 1214q-276 0 -350 -294q-24 -96 -24 -222q0 -394 210 -498q71 -36 165 -36t167 36q213 106 213 486q0 379 -211 490q-72 38 -170 38zM78 696q0 331 154 520t430 189q277 0 429 -198t152 -517t-150 -517t-431 -199q-282 -1 -433 195t-151 527z" />
    <glyph glyph-name="P" unicode="P" horiz-adv-x="1230" 
d="M354 748h377q116 0 174 68t58 150t-60 153t-172 71h-377v-442zM152 0v1380h579q209 0 333 -138q103 -117 103 -274t-103 -274q-121 -137 -333 -137h-377v-557h-202z" />
    <glyph glyph-name="Q" unicode="Q" 
d="M657 1214q-276 0 -350 -294q-24 -96 -24 -222q0 -391 210 -497q71 -35 165 -35q188 0 284 137t96 399q0 363 -211 474q-72 38 -170 38zM860 -371q-251 0 -300 197q-17 67 -17 160q-228 37 -346 227q-119 190 -119 502t154 501t430 189q277 0 429 -198t152 -500
q0 -477 -282 -654q-94 -58 -218 -71v-19q0 -130 69 -149q21 -6 46 -7h166v-167q-88 -11 -164 -11z" />
    <glyph glyph-name="R" unicode="R" horiz-adv-x="1277" 
d="M354 748h383q116 0 174 68t58 150t-60 153t-172 71h-383v-442zM152 0v1380h585q209 0 333 -138q102 -115 104 -277q0 -118 -72 -229q-72 -112 -205 -154l338 -582h-231l-320 557h-330v-557h-202z" />
    <glyph glyph-name="S" unicode="S" horiz-adv-x="1179" 
d="M574 162q227 0 298 127q23 41 23 98t-24 95q-43 69 -224 115l-219 56q-228 59 -297 235q-25 60 -25 140t36 150q71 142 249 199q88 28 187 28q328 0 449 -228q45 -84 54 -190h-209q-15 159 -157 212q-54 20 -123 20q-134 0 -208 -52q-75 -52 -75 -143q0 -54 24 -88
q41 -57 219 -105l212 -53q236 -60 310 -241q26 -67 26 -157q0 -183 -145 -295t-387 -112q-243 0 -385 151q-113 120 -130 296h211q11 -112 83 -178q83 -80 227 -80z" />
    <glyph glyph-name="T" unicode="T" horiz-adv-x="1087" 
d="M35 1190v190h1018v-190h-406v-1190h-203v1190h-409z" />
    <glyph glyph-name="U" unicode="U" horiz-adv-x="1300" 
d="M958 1380h203v-862q0 -274 -141 -410q-141 -135 -373 -135q-357 0 -469 295q-39 104 -39 250v862h203v-856q0 -360 305 -358q313 0 311 358v856z" />
    <glyph glyph-name="V" unicode="V" horiz-adv-x="1124" 
d="M-4 1380h209l356 -1073l359 1073h206l-467 -1380h-200z" />
    <glyph glyph-name="W" unicode="W" horiz-adv-x="1640" 
d="M0 1380h211l248 -1018l272 1018h178l275 -1015l248 1015h208l-356 -1380h-186l-277 1049l-284 -1049h-181z" />
    <glyph glyph-name="X" unicode="X" horiz-adv-x="1044" 
d="M-23 0l433 705l-420 675h229l309 -503l297 503h232l-412 -684l428 -696h-229l-320 520l-317 -520h-230z" />
    <glyph glyph-name="Y" unicode="Y" horiz-adv-x="1101" 
d="M653 0h-202v555l-455 825h229l326 -616l330 616h225l-453 -825v-555z" />
    <glyph glyph-name="Z" unicode="Z" horiz-adv-x="1107" 
d="M72 0v174l719 1016h-687v190h926v-176l-719 -1014h719v-190h-958z" />
    <glyph glyph-name="bracketleft" unicode="[" horiz-adv-x="591" 
d="M164 -328v1813h448v-158h-270v-1497h270v-158h-448z" />
    <glyph glyph-name="backslash" unicode="\" horiz-adv-x="901" 
d="M37 1380h186l637 -1380h-186z" />
    <glyph glyph-name="bracketright" unicode="]" horiz-adv-x="591" 
d="M-23 -172h271v1499h-271v158h451v-1813h-451v156z" />
    <glyph glyph-name="asciicircum" unicode="^" horiz-adv-x="976" 
d="M74 682l342 780h159l328 -780h-182l-229 543l-236 -543h-182z" />
    <glyph glyph-name="underscore" unicode="_" horiz-adv-x="907" 
d="M-16 -129h940v-158h-940v158z" />
    <glyph glyph-name="grave" unicode="`" horiz-adv-x="706" 
d="M82 1380h221l201 -264h-195z" />
    <glyph glyph-name="a" unicode="a" horiz-adv-x="1079" 
d="M264 496q0 -157 62 -247t188 -89q231 0 229 336q0 170 -54 253t-172 83t-186 -90q-67 -89 -67 -246zM500 -14q-200 0 -313 145t-113 368t118 364t310 143q138 0 231 -93v78h189v-768q0 -65 77 -65h31v-156l-22 -4q-22 -4 -56 -4q-141 0 -188 112q-99 -120 -264 -120z" />
    <glyph glyph-name="b" unicode="b" horiz-adv-x="1060" 
d="M315 496q-1 -166 57 -250t183 -84t182 88t58 258q0 228 -136 301q-45 24 -104 25q-240 0 -240 -338zM569 -12q-149 0 -245 106v-94h-189v1380h189v-477q93 103 245 103q192 0 302 -139t114 -355v-8q0 -115 -28 -210q-58 -198 -213 -269q-78 -37 -175 -37z" />
    <glyph glyph-name="c" unicode="c" horiz-adv-x="978" 
d="M264 496q0 -334 258 -334q90 0 142 43t67 117h193q-28 -156 -134 -246q-107 -90 -266 -88q-316 0 -419 294q-31 94 -31 214q0 238 121 373t325 137q167 0 272 -93t128 -241h-193q-37 159 -209 159q-118 -1 -186 -83t-68 -252z" />
    <glyph glyph-name="d" unicode="d" horiz-adv-x="1058" 
d="M264 508q0 -348 242 -346q238 0 238 336t-238 333q-117 0 -180 -87q-62 -87 -62 -236zM489 -12q-196 0 -305 142q-110 142 -110 370q0 227 113 367q113 139 302 139q149 0 246 -103v477h189v-1380h-189v94q-102 -108 -246 -106z" />
    <glyph glyph-name="e" unicode="e" horiz-adv-x="1017" 
d="M272 594h476q-13 167 -136 221q-43 19 -97 19q-103 1 -169 -66q-66 -66 -74 -174zM191 120q-117 133 -117 375q0 241 121 376t324 135t315 -141t110 -361l-4 -72h-672q14 -212 155 -256q42 -14 91 -14q169 0 215 139h193q-89 -313 -408 -313q-205 0 -323 132z" />
    <glyph glyph-name="f" unicode="f" horiz-adv-x="643" 
d="M197 1087q0 312 283 312q51 0 116 -10v-164h-109q-54 0 -78 -26t-24 -93v-115h211v-172h-211v-819h-188v819h-150v172h150v96z" />
    <glyph glyph-name="g" unicode="g" horiz-adv-x="1060" 
d="M500 174q245 0 245 326q0 169 -57 251q-57 83 -175 83t-183 -88q-66 -88 -66 -234q0 -338 236 -338zM479 0q-193 0 -299 138t-106 363t112 364t306 141q146 0 245 -105v90h189v-911q0 -225 -106 -341t-292 -116q-187 0 -293 82t-126 219h188q36 -129 215 -129
q123 0 175 66t50 219v37q-104 -117 -258 -117z" />
    <glyph glyph-name="h" unicode="h" horiz-adv-x="1048" 
d="M324 903q101 103 262 103t250 -105q90 -105 90 -276v-625h-189v610q0 109 -54 166q-54 58 -145 59q-92 1 -153 -71t-61 -225v-539h-189v1380h189v-477z" />
    <glyph glyph-name="i" unicode="i" horiz-adv-x="464" 
d="M137 0v991h189v-991h-189zM135 1145v235h193v-235h-193z" />
    <glyph glyph-name="j" unicode="j" horiz-adv-x="464" 
d="M137 1145v235h193v-235h-193zM57 -375q-50 0 -86 10v160h54q56 0 76 12q40 24 38 74v1110h189v-1100q0 -84 -24 -135q-61 -131 -247 -131z" />
    <glyph glyph-name="k" unicode="k" horiz-adv-x="964" 
d="M135 0v1380h189v-802l385 413h233l-371 -401l408 -590h-234l-307 457l-114 -119v-338h-189z" />
    <glyph glyph-name="l" unicode="l" horiz-adv-x="501" 
d="M370 -6q-112 0 -168 50q-73 64 -73 218v1118h188v-1124q0 -55 21 -75q21 -19 70 -17h30v-160q-20 -10 -68 -10z" />
    <glyph glyph-name="m" unicode="m" horiz-adv-x="1548" 
d="M692 610q0 224 -166 226q-96 0 -149 -72t-53 -225v-539h-189v991h189v-88q97 103 241 103q195 0 264 -140q93 138 283 140q156 0 235 -102q78 -102 78 -277v-627h-188v610q0 224 -164 226q-99 0 -146 -79t-46 -249v-508h-189v610z" />
    <glyph glyph-name="n" unicode="n" horiz-adv-x="1048" 
d="M135 0v991h189v-86q100 101 261 101t251 -104t90 -277v-625h-189v610q0 156 -105 208q-36 18 -85 18q-157 0 -207 -164q-16 -56 -16 -133v-539h-189z" />
    <glyph glyph-name="o" unicode="o" horiz-adv-x="1026" 
d="M264 502q0 -340 248 -340t250 340q0 236 -140 306q-47 23 -108 23q-116 1 -183 -81t-67 -248zM74 499q0 240 123 373q118 132 318 133t319 -140q120 -141 119 -373t-119 -368t-322 -136t-321 136q-117 135 -117 375z" />
    <glyph glyph-name="p" unicode="p" horiz-adv-x="1054" 
d="M317 502q0 -342 242 -342q232 0 232 342q0 237 -130 307q-44 23 -102 22q-124 0 -183 -81t-59 -248zM324 -362h-189v1353h189v-94q95 107 249 109q189 0 298 -141q110 -141 110 -370t-107 -364q-109 -143 -301 -143q-152 0 -249 110v-460z" />
    <glyph glyph-name="q" unicode="q" horiz-adv-x="1060" 
d="M506 162q237 0 237 336t-237 336q-122 0 -182 -89t-60 -247q0 -247 134 -313q46 -23 108 -23zM487 -12q-194 0 -303 142q-110 142 -110 370t111 366t302 140q149 0 250 -109v94h189v-1356h-189v463q-102 -110 -250 -110z" />
    <glyph glyph-name="r" unicode="r" horiz-adv-x="667" 
d="M659 807h-61q-133 0 -203 -74q-71 -74 -71 -252v-481h-189v991h189v-137q95 150 245 152q30 0 90 -11v-188z" />
    <glyph glyph-name="s" unicode="s" horiz-adv-x="921" 
d="M850 285q0 -130 -105 -215q-105 -84 -280 -83t-282 91t-113 231h190q5 -71 55 -112q49 -41 147 -41t150 33t52 76t-12 63q-22 37 -141 68l-161 42q-256 64 -256 271q0 117 92 206t268 90q175 1 274 -88t110 -235h-191q-13 156 -198 160q-121 0 -159 -80q-41 -89 60 -129
q37 -14 162 -44t182 -58q156 -75 156 -246z" />
    <glyph glyph-name="t" unicode="t" horiz-adv-x="667" 
d="M199 262v557h-158v172h158v383h188v-383h213v-172h-213v-563q0 -96 105 -92h67v-160q-61 -12 -107 -11q-117 3 -173 51q-80 64 -80 218z" />
    <glyph glyph-name="u" unicode="u" horiz-adv-x="1048" 
d="M123 369v622h188v-608q0 -110 54 -167q54 -58 135 -58q225 0 225 313v520h188v-991h-188v90q-100 -104 -263 -103t-251 106q-88 104 -88 276z" />
    <glyph glyph-name="v" unicode="v" horiz-adv-x="907" 
d="M8 991h207l238 -735l241 735h205l-350 -991h-191z" />
    <glyph glyph-name="w" unicode="w" horiz-adv-x="1357" 
d="M18 991h205l174 -680l199 680h166l199 -680l176 680h202l-290 -991h-166l-205 686l-203 -686h-166z" />
    <glyph glyph-name="x" unicode="x" horiz-adv-x="913" 
d="M0 0l348 514l-317 477h221l207 -315l217 315h219l-330 -475l348 -516h-219l-235 358l-244 -358h-215z" />
    <glyph glyph-name="y" unicode="y" horiz-adv-x="907" 
d="M481 -199q-56 -171 -252 -173q-52 0 -73 5v166l71 2q42 0 60 21t32 61l41 115l-352 993h207l242 -729l237 729h205z" />
    <glyph glyph-name="z" unicode="z" horiz-adv-x="919" 
d="M70 0v162l542 657h-520v172h752v-157l-537 -662h533v-172h-770z" />
    <glyph glyph-name="braceleft" unicode="{" horiz-adv-x="569" 
d="M336 410v-324q0 -182 121 -242q44 -22 108 -22v-150q-196 0 -307 115t-111 295v330q0 61 -24 88q-25 26 -80 28v123q55 2 80 29t24 88v324q0 177 110 292t308 115v-147q-120 0 -174 -75q-55 -75 -55 -190v-317q0 -79 -44 -148q-14 -22 -30 -34q74 -32 74 -178z" />
    <glyph glyph-name="bar" unicode="|" horiz-adv-x="489" 
d="M156 -158v1659h178v-1659h-178z" />
    <glyph glyph-name="braceright" unicode="}" horiz-adv-x="569" 
d="M231 410q0 146 74 178q-30 20 -51 73q-20 53 -23 109v317q0 182 -119 243q-44 22 -108 22v147q199 0 309 -115q109 -115 109 -292v-324q0 -63 25 -89t77 -28v-123q-54 -2 -78 -28t-24 -88v-330q0 -179 -110 -294t-308 -116v150q121 0 178 81q49 67 49 183v324z" />
    <glyph glyph-name="asciitilde" unicode="~" horiz-adv-x="1034" 
d="M799 432q-45 -20 -103 -20t-184 47l-94 33q-44 14 -75 14t-58 -20t-35 -66h-176q16 107 89 177q74 70 179 73q54 0 187 -47l94 -32q150 -51 165 77h170q-20 -174 -159 -236z" />
    <glyph glyph-name="uni00A0" unicode="&#xa0;" horiz-adv-x="530" 
 />
    <glyph glyph-name="exclamdown" unicode="&#xa1;" horiz-adv-x="544" 
d="M178 739v252h199v-252h-199zM174 -389l29 1010h149l27 -1010h-205z" />
    <glyph glyph-name="cent" unicode="&#xa2;" horiz-adv-x="972" 
d="M264 496q0 -284 199 -328v657q-91 -19 -145 -101t-54 -228zM463 1167h125v-163q147 -14 247 -105q92 -88 115 -227h-192q-32 133 -170 155v-663q145 22 174 158h192q-43 -224 -234 -302q-61 -25 -132 -30v-164h-125v166q-179 20 -284 154t-105 350t105 349t284 156v166z
" />
    <glyph glyph-name="sterling" unicode="&#xa3;" horiz-adv-x="1001" 
d="M340 324q0 -95 -37 -138h631v-186h-897v186q55 0 80 27t24 90v348h-86v133h86v215q0 178 110 293t290 115t284 -106t121 -277h-198q-21 191 -199 195q-105 0 -157 -61t-52 -163v-211h412v-133h-412v-327z" />
    <glyph glyph-name="yen" unicode="&#xa5;" horiz-adv-x="1101" 
d="M1004 784v-133h-297l-54 -96v-72h351v-133h-351v-350h-202v350h-355v133h355v72l-54 96h-301v133h228l-328 596h229l326 -616l330 616h225l-328 -596h226z" />
    <glyph glyph-name="brokenbar" unicode="&#xa6;" horiz-adv-x="481" 
d="M139 776v725h180v-725h-180zM139 -158v725h180v-725h-180z" />
    <glyph glyph-name="section" unicode="&#xa7;" horiz-adv-x="1017" 
d="M268 704q-34 -114 88 -163l133 -59q69 -31 127 -52q62 15 100 69t39 99q2 92 -81 123q-55 20 -120 47l-142 57q-111 -22 -144 -121zM760 352q96 -87 96 -217q0 -129 -94 -219t-258 -90t-257 90t-93 231h192q2 -71 46 -112t99 -41q133 0 165 89q46 129 -93 181l-143 54
q-162 59 -208 90q-136 92 -136 232q0 141 103 224q36 29 87 47q-80 80 -80 201t86 208t249 87q164 -1 250 -85t85 -239h-190q5 160 -148 160q-70 1 -105 -35q-34 -36 -34 -85q0 -88 80 -124q61 -27 134 -55l140 -53q209 -76 209 -281q0 -87 -47 -154t-135 -104z" />
    <glyph glyph-name="dieresis" unicode="&#xa8;" horiz-adv-x="886" 
d="M539 1159v221h180v-221h-180zM170 1159v221h178v-221h-178z" />
    <glyph glyph-name="copyright" unicode="&#xa9;" horiz-adv-x="1597" 
d="M1035 365q-84 -82 -239 -82t-246 107t-91 300q0 292 201 380q65 28 142 28q145 0 231 -82t110 -215h-164q-29 141 -172 141q-186 0 -185 -251t185 -253q142 0 170 150h164q-22 -141 -106 -223zM1382 688q0 240 -172 412t-412 172q-241 0 -411 -171t-170 -412t170 -412
t411 -172q240 -1 412 171t172 412zM80 688q0 195 97 361q97 165 262 261q164 95 360 95q295 0 508 -210q136 -136 185 -317q26 -92 26 -190q0 -190 -97 -358t-262 -263q-165 -96 -359 -96t-364 98q-250 147 -331 429q-25 92 -25 190z" />
    <glyph glyph-name="ordfeminine" unicode="&#xaa;" horiz-adv-x="800" 
d="M223 1047q0 -224 164 -226q146 0 147 218t-143 216q-78 0 -123 -57t-45 -151zM74 1045q0 75 22 136q46 126 157 179q56 26 134 26t139 -47v39h152v-522q0 -35 41 -35h33v-119q-36 -8 -64 -8q-93 0 -131 66q-70 -68 -162 -69q-233 -3 -301 213q-20 66 -20 141z" />
    <glyph glyph-name="guillemotleft" unicode="&#xab;" horiz-adv-x="1118" 
d="M551 475v162l483 301v-186l-315 -199l315 -201v-184zM84 475v162l481 301v-186l-313 -199l313 -201v-184z" />
    <glyph glyph-name="logicalnot" unicode="&#xac;" horiz-adv-x="1136" 
d="M80 469v176h975v-500h-183v324h-792z" />
    <glyph glyph-name="registered" unicode="&#xae;" horiz-adv-x="1597" 
d="M858 743q98 0 103 99q0 62 -55 87q-19 9 -48 9h-160v-195h160zM543 307v780h315q124 0 193 -76t69 -170q0 -95 -78 -176q-25 -26 -57 -42l166 -316h-174l-148 289h-131v-289h-155zM1382 688q0 240 -172 412t-412 172q-241 0 -411 -171t-170 -412t170 -412t411 -172
q240 -1 412 171t172 412zM80 688q0 195 97 361q97 165 262 261q164 95 360 95q295 0 508 -210q136 -136 185 -317q26 -92 26 -190q0 -190 -97 -358t-262 -263q-165 -96 -359 -96t-364 98q-250 147 -331 429q-25 92 -25 190z" />
    <glyph glyph-name="macron" unicode="&#xaf;" horiz-adv-x="802" 
d="M109 1212v168h589v-168h-589z" />
    <glyph glyph-name="degree" unicode="&#xb0;" horiz-adv-x="749" 
d="M231 1094q-1 -30 11 -58q23 -54 79 -79q27 -11 57 -11q62 0 103 42t41 90q0 78 -42 119q-42 42 -88 42q-112 -1 -150 -89q-12 -26 -11 -56zM674 1094q0 -124 -87 -211t-210 -87q-123 1 -210 88t-87 209t87 210t209 88q122 -1 210 -87t88 -210z" />
    <glyph glyph-name="plusminus" unicode="&#xb1;" horiz-adv-x="1136" 
d="M78 0v174h979v-174h-979zM72 571v177h403v305h187v-305h399v-177h-399v-284h-187v284h-403z" />
    <glyph glyph-name="uni00B2" unicode="&#xb2;" horiz-adv-x="653" 
d="M151 1549q71 65 186 65t181 -66t66 -171q0 -104 -97 -208q-27 -29 -55 -55l-186 -153h346v-123h-500v118l183 169q113 108 141 157t28 96t-27 78t-80 31t-86 -27t-38 -76h-141q8 104 79 165z" />
    <glyph glyph-name="uni00B3" unicode="&#xb3;" horiz-adv-x="681" 
d="M207 1042q25 -94 135 -94q52 0 88 34t37 88q0 54 -35 85t-92 31h-90v110h76q51 0 85 27q33 27 33 74t-33 69t-81 23q-87 0 -107 -80h-139q13 92 82 148q69 57 171 57q103 0 173 -58t71 -156t-75 -155q102 -66 101 -175q-1 -108 -79 -175t-191 -69q-112 0 -181 58t-93 158
h144z" />
    <glyph glyph-name="acute" unicode="&#xb4;" horiz-adv-x="706" 
d="M209 1116l199 264h223l-230 -264h-192z" />
    <glyph glyph-name="mu" unicode="&#xb5;" horiz-adv-x="1042" 
d="M324 -389h-189v1366h189v-600q0 -162 114 -207q75 -29 156 4q122 50 125 250v553h188v-977h-188v76q-96 -92 -221 -90q-68 0 -141 38q-20 11 -33 25v-438z" />
    <glyph glyph-name="mu" unicode="&#x3bc;" horiz-adv-x="1042" 
d="M324 -389h-189v1366h189v-600q0 -162 114 -207q75 -29 156 4q122 50 125 250v553h188v-977h-188v76q-96 -92 -221 -90q-68 0 -141 38q-20 11 -33 25v-438z" />
    <glyph glyph-name="paragraph" unicode="&#xb6;" horiz-adv-x="1392" 
d="M49 986q0 161 115 279q117 117 278 115h881v-192h-244v-1188h-205v1188h-241v-1188h-211v592q-159 6 -265 121q-108 112 -108 273z" />
    <glyph glyph-name="periodcentered" unicode="&#xb7;" horiz-adv-x="544" 
d="M180 473v272h195v-272h-195z" />
    <glyph glyph-name="cedilla" unicode="&#xb8;" horiz-adv-x="499" 
d="M145 -473q-27 0 -73 4v115h39q53 0 69 20q31 36 31 109v116h162v-100q0 -264 -228 -264z" />
    <glyph glyph-name="uni00B9" unicode="&#xb9;" horiz-adv-x="446" 
d="M338 1597v-759h-133v600l-168 -103v144l192 118h109z" />
    <glyph glyph-name="ordmasculine" unicode="&#xba;" horiz-adv-x="774" 
d="M551 1044q0 100 -41 156t-119 57q-78 0 -122 -52t-44 -161q0 -217 164 -219q162 0 162 219zM74 1046q0 159 86 251t230 92t228 -98t83 -254t-84 -250q-83 -93 -228 -93q-73 0 -131 24q-184 77 -184 328z" />
    <glyph glyph-name="guillemotright" unicode="&#xbb;" horiz-adv-x="1118" 
d="M551 168v184l313 203l-313 197v186l483 -301v-162zM82 168v184l313 203l-313 197v186l483 -301v-162z" />
    <glyph glyph-name="onequarter" unicode="&#xbc;" horiz-adv-x="1443" 
d="M1167 282v313l-215 -313h215zM815 161v106l342 494h143v-479h105v-121h-105v-160h-133v160h-352zM338 1379v-759h-133v600l-168 -103v144l192 118h109zM260 0l705 1380h139l-703 -1380h-141z" />
    <glyph glyph-name="onehalf" unicode="&#xbd;" horiz-adv-x="1529" 
d="M1464 542q0 -129 -151 -264l-187 -154h347v-123h-500v119l183 169q113 108 141 157t28 96t-27 78q-26 30 -80 30t-86 -26t-38 -76h-142q4 50 25 92q65 137 239 137q119 0 183 -66q65 -66 65 -169zM260 0l705 1380h139l-703 -1380h-141zM338 1381v-759h-133v600l-168 -103
v144l192 118h109z" />
    <glyph glyph-name="threequarters" unicode="&#xbe;" horiz-adv-x="1624" 
d="M207 828q25 -94 135 -94q52 0 88 34t37 88q0 54 -35 85t-92 31h-90v110h76q51 0 85 27q33 27 33 74t-33 69t-81 23q-87 0 -107 -80h-139q13 92 82 148q69 57 171 57q103 0 173 -58t71 -156t-75 -155q102 -66 101 -175q-1 -108 -79 -175t-191 -69q-112 0 -181 58t-93 158
h144zM440 0l705 1380h139l-702 -1380h-142zM1348 284v313l-215 -313h215zM995 163v106l342 494h144v-479h104v-121h-104v-160h-133v160h-353z" />
    <glyph glyph-name="questiondown" unicode="&#xbf;" horiz-adv-x="919" 
d="M354 725v252h199v-252h-199zM144 -305q-109 109 -109 257t102 277q36 45 108 120q124 129 124 226v50h178v-60q0 -135 -125 -270l-76 -81q-75 -85 -96 -138q-22 -54 -23 -96q1 -96 55 -154t143 -58t147 55q57 54 65 140h194q-14 -171 -128 -274t-281 -103t-278 109z" />
    <glyph glyph-name="Agrave" unicode="&#xc0;" horiz-adv-x="1224" 
d="M317 1784h222l200 -264h-194zM397 532h428l-215 574zM-8 0l524 1380h195l522 -1380h-207l-129 344h-571l-127 -344h-207z" />
    <glyph glyph-name="Aacute" unicode="&#xc1;" horiz-adv-x="1224" 
d="M489 1520l199 264h223l-229 -264h-193zM397 532h428l-215 574zM-8 0l524 1380h195l522 -1380h-207l-129 344h-571l-127 -344h-207z" />
    <glyph glyph-name="Acircumflex" unicode="&#xc2;" horiz-adv-x="1224" 
d="M295 1520l219 270h197l219 -270h-189l-131 143l-127 -143h-188zM397 532h428l-215 574zM-8 0l524 1380h195l522 -1380h-207l-129 344h-571l-127 -344h-207z" />
    <glyph glyph-name="Atilde" unicode="&#xc3;" horiz-adv-x="1224" 
d="M727 1708q58 0 76 84h151q-27 -167 -134 -218q-38 -18 -88 -18t-142 42l-62 29q-29 13 -51 13q-51 0 -69 -79h-152q48 231 225 231q53 0 137 -42l61 -29q29 -13 48 -13zM397 532h428l-215 574zM-8 0l524 1380h195l522 -1380h-207l-129 344h-571l-127 -344h-207z" />
    <glyph glyph-name="Adieresis" unicode="&#xc4;" horiz-adv-x="1224" 
d="M707 1569v221h180v-221h-180zM338 1569v221h178v-221h-178zM397 532h428l-215 574zM-8 0l524 1380h195l522 -1380h-207l-129 344h-571l-127 -344h-207z" />
    <glyph glyph-name="Aring" unicode="&#xc5;" horiz-adv-x="1224" 
d="M547 1587q37 -37 99 -15q60 27 63 93q0 38 -31 69t-60 30q-28 0 -46 -8t-32 -22q-30 -30 -30 -70t37 -77zM756 1809q61 -61 61 -147t-61 -143q-59 -59 -147 -60t-148 60t-60 145t60 144t147 61t148 -60zM397 532h428l-215 574zM-8 0l524 1380h195l522 -1380h-207
l-129 344h-571l-127 -344h-207z" />
    <glyph glyph-name="AE" unicode="&#xc6;" horiz-adv-x="1648" 
d="M719 528v662h-86l-246 -662h332zM1565 1380v-190h-643v-391h526v-191h-526v-420h643v-188h-846v340h-404l-125 -340h-206l524 1380h1057z" />
    <glyph glyph-name="Ccedilla" unicode="&#xc7;" horiz-adv-x="1275" 
d="M532 -473q-27 0 -73 4v115h39q53 0 69 20q31 36 31 109v116h162v-100q0 -264 -228 -264zM659 166q280 0 351 260h207q-33 -202 -179 -326q-146 -123 -379 -125q-280 0 -430 193q-151 193 -151 525t152 522t432 190q230 0 374 -123t176 -317h-208q-41 178 -213 232
q-57 17 -141 17q-178 -1 -273 -137t-95 -388q1 -251 94 -387t283 -136z" />
    <glyph glyph-name="Egrave" unicode="&#xc8;" horiz-adv-x="1153" 
d="M332 1784h221l201 -264h-195zM156 0v1380h944v-190h-742v-391h611v-191h-611v-418h742v-190h-944z" />
    <glyph glyph-name="Eacute" unicode="&#xc9;" horiz-adv-x="1153" 
d="M424 1526l199 264h223l-230 -264h-192zM156 0v1380h944v-190h-742v-391h611v-191h-611v-418h742v-190h-944z" />
    <glyph glyph-name="Ecircumflex" unicode="&#xca;" horiz-adv-x="1153" 
d="M291 1520l219 270h197l219 -270h-189l-131 143l-127 -143h-188zM156 0v1380h944v-190h-742v-391h611v-191h-611v-418h742v-190h-944z" />
    <glyph glyph-name="Edieresis" unicode="&#xcb;" horiz-adv-x="1153" 
d="M694 1569v221h180v-221h-180zM326 1569v221h178v-221h-178zM156 0v1380h944v-190h-742v-391h611v-191h-611v-418h742v-190h-944z" />
    <glyph glyph-name="Igrave" unicode="&#xcc;" horiz-adv-x="505" 
d="M-3 1784h221l201 -264h-195zM158 0v1380h202v-1380h-202z" />
    <glyph glyph-name="Iacute" unicode="&#xcd;" horiz-adv-x="505" 
d="M108 1520l198 264h223l-229 -264h-192zM158 0v1380h202v-1380h-202z" />
    <glyph glyph-name="Icircumflex" unicode="&#xce;" horiz-adv-x="505" 
d="M-56 1520l219 270h196l220 -270h-189l-131 143l-127 -143h-188zM158 0v1380h202v-1380h-202z" />
    <glyph glyph-name="Idieresis" unicode="&#xcf;" horiz-adv-x="505" 
d="M349 1569v221h180v-221h-180zM-19 1569v221h178v-221h-178zM158 0v1380h202v-1380h-202z" />
    <glyph glyph-name="Eth" unicode="&#xd0;" horiz-adv-x="1423" 
d="M764 190q377 0 377 519q0 341 -214 446q-71 35 -167 35h-303v-404h233v-172h-233v-424h307zM61 614v172h193v594h506q282 0 434 -186t152 -500t-152 -504t-438 -190h-502v614h-193z" />
    <glyph glyph-name="Ntilde" unicode="&#xd1;" 
d="M782 1708q58 0 76 84h152q-27 -167 -134 -218q-38 -18 -88 -18t-143 42l-61 29q-29 13 -52 13q-51 0 -69 -79h-152q48 231 226 231q50 0 137 -42l60 -29q29 -13 48 -13zM152 0v1380h202l613 -1011v1011h202v-1380h-202l-613 1016v-1016h-202z" />
    <glyph glyph-name="Ograve" unicode="&#xd2;" 
d="M389 1784h221l201 -264h-195zM657 1214q-276 0 -350 -294q-24 -96 -24 -222q0 -394 210 -498q71 -36 165 -36t167 36q213 106 213 486q0 379 -211 490q-72 38 -170 38zM78 696q0 331 154 520t430 189q277 0 429 -198t152 -517t-150 -517t-431 -199q-282 -1 -433 195
t-151 527z" />
    <glyph glyph-name="Oacute" unicode="&#xd3;" 
d="M516 1520l199 264h223l-229 -264h-193zM657 1214q-276 0 -350 -294q-24 -96 -24 -222q0 -394 210 -498q71 -36 165 -36t167 36q213 106 213 486q0 379 -211 490q-72 38 -170 38zM78 696q0 331 154 520t430 189q277 0 429 -198t152 -517t-150 -517t-431 -199
q-282 -1 -433 195t-151 527z" />
    <glyph glyph-name="Ocircumflex" unicode="&#xd4;" 
d="M344 1520l219 270h197l219 -270h-188l-132 143l-127 -143h-188zM657 1214q-276 0 -350 -294q-24 -96 -24 -222q0 -394 210 -498q71 -36 165 -36t167 36q213 106 213 486q0 379 -211 490q-72 38 -170 38zM78 696q0 331 154 520t430 189q277 0 429 -198t152 -517t-150 -517
t-431 -199q-282 -1 -433 195t-151 527z" />
    <glyph glyph-name="Otilde" unicode="&#xd5;" 
d="M776 1708q58 0 76 84h152q-27 -167 -135 -218q-38 -18 -88 -18t-142 42l-61 29q-29 13 -52 13q-51 0 -69 -79h-152q48 231 225 231q51 0 138 -42l60 -29q29 -13 48 -13zM657 1214q-276 0 -350 -294q-24 -96 -24 -222q0 -394 210 -498q71 -36 165 -36t167 36
q213 106 213 486q0 379 -211 490q-72 38 -170 38zM78 696q0 331 154 520t430 189q277 0 429 -198t152 -517t-150 -517t-431 -199q-282 -1 -433 195t-151 527z" />
    <glyph glyph-name="Odieresis" unicode="&#xd6;" 
d="M756 1569v221h180v-221h-180zM387 1569v221h178v-221h-178zM657 1214q-276 0 -350 -294q-24 -96 -24 -222q0 -394 210 -498q71 -36 165 -36t167 36q213 106 213 486q0 379 -211 490q-72 38 -170 38zM78 696q0 331 154 520t430 189q277 0 429 -198t152 -517t-150 -517
t-431 -199q-282 -1 -433 195t-151 527z" />
    <glyph glyph-name="multiply" unicode="&#xd7;" horiz-adv-x="1089" 
d="M76 203l346 346l-344 344l121 123l344 -346l346 346l123 -125l-346 -344l344 -342l-121 -123l-344 344l-346 -346z" />
    <glyph glyph-name="Oslash" unicode="&#xd8;" 
d="M654 166q192 0 288 137t96 389t-100 387l-455 -874q72 -39 171 -39zM657 1214q-92 0 -162 -34q-212 -101 -212 -480q0 -257 92 -395l450 871q-76 38 -168 38zM78 700q0 327 154 516t427 189q140 0 256 -57l70 127h162l-113 -209q151 -140 196 -395q13 -80 13 -204
t-37 -259q-37 -136 -110 -232q-152 -202 -437 -203q-146 0 -266 58l-65 -123h-162l110 209q-198 192 -198 583z" />
    <glyph glyph-name="Ugrave" unicode="&#xd9;" horiz-adv-x="1300" 
d="M365 1784h221l200 -264h-194zM958 1380h203v-862q0 -274 -141 -410q-141 -135 -373 -135q-357 0 -469 295q-39 104 -39 250v862h203v-856q0 -360 305 -358q313 0 311 358v856z" />
    <glyph glyph-name="Uacute" unicode="&#xda;" horiz-adv-x="1300" 
d="M494 1520l198 264h223l-229 -264h-192zM958 1380h203v-862q0 -274 -141 -410q-141 -135 -373 -135q-357 0 -469 295q-39 104 -39 250v862h203v-856q0 -360 305 -358q313 0 311 358v856z" />
    <glyph glyph-name="Ucircumflex" unicode="&#xdb;" horiz-adv-x="1300" 
d="M332 1520l219 270h197l219 -270h-189l-131 143l-127 -143h-188zM958 1380h203v-862q0 -274 -141 -410q-141 -135 -373 -135q-357 0 -469 295q-39 104 -39 250v862h203v-856q0 -360 305 -358q313 0 311 358v856z" />
    <glyph glyph-name="Udieresis" unicode="&#xdc;" horiz-adv-x="1300" 
d="M739 1569v221h181v-221h-181zM371 1569v221h178v-221h-178zM958 1380h203v-862q0 -274 -141 -410q-141 -135 -373 -135q-357 0 -469 295q-39 104 -39 250v862h203v-856q0 -360 305 -358q313 0 311 358v856z" />
    <glyph glyph-name="Yacute" unicode="&#xdd;" horiz-adv-x="1101" 
d="M379 1518l199 264h223l-230 -264h-192zM653 0h-202v555l-455 825h229l326 -616l330 616h225l-453 -825v-555z" />
    <glyph glyph-name="Thorn" unicode="&#xde;" horiz-adv-x="1245" 
d="M362 485h373q113 0 169 69t58 153q1 84 -56 158q-57 73 -171 73h-373v-453zM162 0v1380h200v-250h373q212 0 329 -141q104 -122 103 -279q-2 -157 -112 -287t-320 -130h-373v-293h-200z" />
    <glyph glyph-name="germandbls" unicode="&#xdf;" horiz-adv-x="1097" 
d="M459 164h88q134 0 205 71t71 195q0 179 -144 236q-48 18 -110 18h-57v166h29q89 0 141 59q53 59 53 140q0 125 -97 169q-33 15 -80 15q-155 0 -205 -134q-17 -46 -17 -108v-991h-186v981q0 207 112 317q112 109 283 109q170 0 275 -101q104 -102 104 -264
q0 -117 -86 -210q-26 -28 -58 -46q100 -42 165 -133q67 -99 67 -213q0 -215 -126 -335q-60 -56 -145 -85q-85 -28 -165 -28t-117 6v166z" />
    <glyph glyph-name="agrave" unicode="&#xe0;" horiz-adv-x="1075" 
d="M262 1380h221l201 -264h-195zM264 496q0 -157 62 -247t188 -89q231 0 229 336q0 170 -54 253t-172 83t-186 -90q-67 -89 -67 -246zM500 -14q-200 0 -313 145t-113 368t118 364t310 143q138 0 231 -93v78h189v-768q0 -65 77 -65h31v-156l-22 -4q-22 -4 -56 -4
q-141 0 -188 112q-99 -120 -264 -120z" />
    <glyph glyph-name="aacute" unicode="&#xe1;" horiz-adv-x="1075" 
d="M389 1116l199 264h223l-229 -264h-193zM264 496q0 -157 62 -247t188 -89q231 0 229 336q0 170 -54 253t-172 83t-186 -90q-67 -89 -67 -246zM500 -14q-200 0 -313 145t-113 368t118 364t310 143q138 0 231 -93v78h189v-768q0 -65 77 -65h31v-156l-22 -4q-22 -4 -56 -4
q-141 0 -188 112q-99 -120 -264 -120z" />
    <glyph glyph-name="acircumflex" unicode="&#xe2;" horiz-adv-x="1075" 
d="M217 1114l219 270h197l219 -270h-188l-132 143l-126 -143h-189zM264 496q0 -157 62 -247t188 -89q231 0 229 336q0 170 -54 253t-172 83t-186 -90q-67 -89 -67 -246zM500 -14q-200 0 -313 145t-113 368t118 364t310 143q138 0 231 -93v78h189v-768q0 -65 77 -65h31v-156
l-22 -4q-22 -4 -56 -4q-141 0 -188 112q-99 -120 -264 -120z" />
    <glyph glyph-name="atilde" unicode="&#xe3;" horiz-adv-x="1075" 
d="M711 1331q19 26 24 58h152q-27 -167 -134 -218q-38 -18 -91 -18t-140 42l-61 29q-29 13 -51 13q-52 0 -70 -80h-152q48 232 226 232q45 0 137 -42l60 -29q29 -13 55 -13t45 26zM264 496q0 -157 62 -247t188 -89q231 0 229 336q0 170 -54 253t-172 83t-186 -90
q-67 -89 -67 -246zM500 -14q-200 0 -313 145t-113 368t118 364t310 143q138 0 231 -93v78h189v-768q0 -65 77 -65h31v-156l-22 -4q-22 -4 -56 -4q-141 0 -188 112q-99 -120 -264 -120z" />
    <glyph glyph-name="adieresis" unicode="&#xe4;" horiz-adv-x="1075" 
d="M639 1159v221h180v-221h-180zM270 1159v221h179v-221h-179zM264 496q0 -157 62 -247t188 -89q231 0 229 336q0 170 -54 253t-172 83t-186 -90q-67 -89 -67 -246zM500 -14q-200 0 -313 145t-113 368t118 364t310 143q138 0 231 -93v78h189v-768q0 -65 77 -65h31v-156
l-22 -4q-22 -4 -56 -4q-141 0 -188 112q-99 -120 -264 -120z" />
    <glyph glyph-name="aring" unicode="&#xe5;" horiz-adv-x="1075" 
d="M535 1401q-19 0 -37 -8q-18 -7 -40 -29t-22 -61t29 -70t68 -31t70 29q32 29 32 60q0 79 -63 102q-18 8 -37 8zM388 1447q60 60 147 60q87 -1 147 -61t61 -146q-1 -86 -61 -145t-147 -59t-147 60t-60 146t60 145zM264 496q0 -157 62 -247t188 -89q231 0 229 336
q0 170 -54 253t-172 83t-186 -90q-67 -89 -67 -246zM500 -14q-200 0 -313 145t-113 368t118 364t310 143q138 0 231 -93v78h189v-768q0 -65 77 -65h31v-156l-22 -4q-22 -4 -56 -4q-141 0 -188 112q-99 -120 -264 -120z" />
    <glyph glyph-name="ae" unicode="&#xe6;" horiz-adv-x="1609" 
d="M1279 765q-60 69 -164 69t-171 -65q-68 -65 -76 -173h471q-7 112 -60 169zM260 294q0 -102 105 -135q33 -9 89 -9q114 1 170 72t56 177v35q-20 1 -49 1h-62q-38 0 -88 -1q-172 -2 -209 -80q-12 -26 -12 -60zM410 -14q-122 0 -230 77t-108 228q0 212 226 271q91 22 243 22
h139v51q0 143 -103 189q-35 16 -89 16q-141 0 -179 -75q-12 -23 -18 -50h-197q19 140 120 214q101 75 265 77q218 0 316 -132q122 132 322 132q201 0 310 -138t109 -362l-4 -72h-666q18 -272 244 -272q165 0 211 139h192q-89 -313 -403 -313q-224 0 -340 157
q-119 -159 -360 -159z" />
    <glyph glyph-name="ccedilla" unicode="&#xe7;" horiz-adv-x="972" 
d="M379 -473q-26 0 -74 4v115h39q54 0 70 20q32 37 30 109v116h162v-100q0 -264 -227 -264zM264 496q0 -334 258 -334q90 0 142 43t67 117h193q-28 -156 -134 -246q-107 -90 -266 -88q-316 0 -419 294q-31 94 -31 214q0 238 121 373t325 137q167 0 272 -93t128 -241h-193
q-37 159 -209 159q-118 -1 -186 -83t-68 -252z" />
    <glyph glyph-name="egrave" unicode="&#xe8;" horiz-adv-x="1017" 
d="M268 1380h221l201 -264h-194zM272 594h476q-13 167 -136 221q-43 19 -97 19q-103 1 -169 -66q-66 -66 -74 -174zM191 120q-117 133 -117 375q0 241 121 376t324 135t315 -141t110 -361l-4 -72h-672q14 -212 155 -256q42 -14 91 -14q169 0 215 139h193q-89 -313 -408 -313
q-205 0 -323 132z" />
    <glyph glyph-name="eacute" unicode="&#xe9;" horiz-adv-x="1017" 
d="M344 1116l199 264h223l-229 -264h-193zM272 594h476q-13 167 -136 221q-43 19 -97 19q-103 1 -169 -66q-66 -66 -74 -174zM191 120q-117 133 -117 375q0 241 121 376t324 135t315 -141t110 -361l-4 -72h-672q14 -212 155 -256q42 -14 91 -14q169 0 215 139h193
q-89 -313 -408 -313q-205 0 -323 132z" />
    <glyph glyph-name="ecircumflex" unicode="&#xea;" horiz-adv-x="1017" 
d="M195 1116l219 270h196l219 -270h-188l-131 144l-127 -144h-188zM272 594h476q-13 167 -136 221q-43 19 -97 19q-103 1 -169 -66q-66 -66 -74 -174zM191 120q-117 133 -117 375q0 241 121 376t324 135t315 -141t110 -361l-4 -72h-672q14 -212 155 -256q42 -14 91 -14
q169 0 215 139h193q-89 -313 -408 -313q-205 0 -323 132z" />
    <glyph glyph-name="edieresis" unicode="&#xeb;" horiz-adv-x="1017" 
d="M594 1159v221h180v-221h-180zM225 1159v221h178v-221h-178zM272 594h476q-13 167 -136 221q-43 19 -97 19q-103 1 -169 -66q-66 -66 -74 -174zM191 120q-117 133 -117 375q0 241 121 376t324 135t315 -141t110 -361l-4 -72h-672q14 -212 155 -256q42 -14 91 -14
q169 0 215 139h193q-89 -313 -408 -313q-205 0 -323 132z" />
    <glyph glyph-name="igrave" unicode="&#xec;" horiz-adv-x="458" 
d="M139 0v991h189v-991h-189zM-91 1380h221l201 -264h-195z" />
    <glyph glyph-name="iacute" unicode="&#xed;" horiz-adv-x="458" 
d="M139 0v991h189v-991h-189zM138 1116l199 264h223l-229 -264h-193z" />
    <glyph glyph-name="icircumflex" unicode="&#xee;" horiz-adv-x="458" 
d="M-83 1107l219 270h197l219 -270h-188l-132 143l-127 -143h-188zM139 0v991h189v-991h-189z" />
    <glyph glyph-name="idieresis" unicode="&#xef;" horiz-adv-x="458" 
d="M139 0v991h189v-991h-189zM327 1159v221h180v-221h-180zM-42 1159v221h178v-221h-178z" />
    <glyph glyph-name="eth" unicode="&#xf0;" horiz-adv-x="1042" 
d="M268 502q0 -336 244 -336t246 336q0 228 -139 302q-45 24 -103 24q-178 -2 -230 -184q-18 -61 -18 -142zM731 1223q215 -243 215 -721q0 -239 -115 -377q-115 -139 -317 -139q-201 0 -318 138q-116 139 -116 372q0 234 120 370q120 137 314 135q100 0 166 -40
q-36 105 -102 165l-117 -73l-62 98l74 45q-86 35 -170 35h-90v168q60 6 92 6q192 0 336 -102l180 112l60 -98z" />
    <glyph glyph-name="ntilde" unicode="&#xf1;" horiz-adv-x="1048" 
d="M377 1389q45 0 137 -42l60 -29q28 -13 48 -13q32 0 52 26q19 26 24 58h152q-27 -167 -134 -218q-38 -18 -91 -18t-140 42l-61 29q-29 13 -51 13q-52 0 -70 -80h-151q48 232 225 232zM135 0v991h189v-86q100 101 261 101t251 -104t90 -277v-625h-189v610q0 156 -105 208
q-36 18 -85 18q-157 0 -207 -164q-16 -56 -16 -133v-539h-189z" />
    <glyph glyph-name="ograve" unicode="&#xf2;" horiz-adv-x="1026" 
d="M236 1380h221l200 -264h-194zM264 502q0 -340 248 -340t250 340q0 236 -140 306q-47 23 -108 23q-116 1 -183 -81t-67 -248zM74 499q0 240 123 373q118 132 318 133t319 -140q120 -141 119 -373t-119 -368t-322 -136t-321 136q-117 135 -117 375z" />
    <glyph glyph-name="oacute" unicode="&#xf3;" horiz-adv-x="1026" 
d="M362 1116l199 264h223l-229 -264h-193zM264 502q0 -340 248 -340t250 340q0 236 -140 306q-47 23 -108 23q-116 1 -183 -81t-67 -248zM74 499q0 240 123 373q118 132 318 133t319 -140q120 -141 119 -373t-119 -368t-322 -136t-321 136q-117 135 -117 375z" />
    <glyph glyph-name="ocircumflex" unicode="&#xf4;" horiz-adv-x="1026" 
d="M197 1116l219 270h196l219 -270h-188l-131 144l-127 -144h-188zM264 502q0 -340 248 -340t250 340q0 236 -140 306q-47 23 -108 23q-116 1 -183 -81t-67 -248zM74 499q0 240 123 373q118 132 318 133t319 -140q120 -141 119 -373t-119 -368t-322 -136t-321 136
q-117 135 -117 375z" />
    <glyph glyph-name="otilde" unicode="&#xf5;" horiz-adv-x="1026" 
d="M379 1389q47 0 137 -42l61 -29q29 -13 48 -13q32 0 51 26t24 58h152q-27 -167 -134 -218q-38 -18 -90 -18t-141 42l-61 29q-29 13 -51 13q-52 0 -70 -80h-151q48 232 225 232zM264 502q0 -340 248 -340t250 340q0 236 -140 306q-47 23 -108 23q-116 1 -183 -81t-67 -248z
M74 499q0 240 123 373q118 132 318 133t319 -140q120 -141 119 -373t-119 -368t-322 -136t-321 136q-117 135 -117 375z" />
    <glyph glyph-name="odieresis" unicode="&#xf6;" horiz-adv-x="1026" 
d="M602 1159v221h180v-221h-180zM233 1159v221h179v-221h-179zM264 502q0 -340 248 -340t250 340q0 236 -140 306q-47 23 -108 23q-116 1 -183 -81t-67 -248zM74 499q0 240 123 373q118 132 318 133t319 -140q120 -141 119 -373t-119 -368t-322 -136t-321 136
q-117 135 -117 375z" />
    <glyph glyph-name="divide" unicode="&#xf7;" horiz-adv-x="1136" 
d="M467 776v273h203v-273h-203zM467 57v273h203v-273h-203zM92 469v176h948v-176h-948z" />
    <glyph glyph-name="oslash" unicode="&#xf8;" horiz-adv-x="1017" 
d="M510 162q244 0 246 340q0 140 -54 225l-299 -547q46 -18 107 -18zM262 512q0 -158 45 -240l293 543q-40 18 -90 19q-116 0 -182 -82t-66 -240zM211 98q-137 135 -137 388t121 386q116 132 315 134q85 0 174 -35l47 84h150l-86 -156q149 -137 149 -388t-116 -388
t-318 -137q-103 0 -191 37l-45 -84h-149z" />
    <glyph glyph-name="ugrave" unicode="&#xf9;" horiz-adv-x="1048" 
d="M272 1380h222l200 -264h-194zM123 369v622h188v-608q0 -110 54 -167q54 -58 135 -58q225 0 225 313v520h188v-991h-188v90q-100 -104 -263 -103t-251 106q-88 104 -88 276z" />
    <glyph glyph-name="uacute" unicode="&#xfa;" horiz-adv-x="1048" 
d="M319 1116l199 264h223l-229 -264h-193zM123 369v622h188v-608q0 -110 54 -167q54 -58 135 -58q225 0 225 313v520h188v-991h-188v90q-100 -104 -263 -103t-251 106q-88 104 -88 276z" />
    <glyph glyph-name="ucircumflex" unicode="&#xfb;" horiz-adv-x="1048" 
d="M203 1116l219 270h196l220 -270h-189l-131 144l-127 -144h-188zM123 369v622h188v-608q0 -110 54 -167q54 -58 135 -58q225 0 225 313v520h188v-991h-188v90q-100 -104 -263 -103t-251 106q-88 104 -88 276z" />
    <glyph glyph-name="udieresis" unicode="&#xfc;" horiz-adv-x="1048" 
d="M614 1159v221h181v-221h-181zM246 1159v221h178v-221h-178zM123 369v622h188v-608q0 -110 54 -167q54 -58 135 -58q225 0 225 313v520h188v-991h-188v90q-100 -104 -263 -103t-251 106q-88 104 -88 276z" />
    <glyph glyph-name="yacute" unicode="&#xfd;" horiz-adv-x="907" 
d="M281 1116l198 264h223l-229 -264h-192zM481 -199q-56 -171 -252 -173q-52 0 -73 5v166l71 2q42 0 60 21t32 61l41 115l-352 993h207l242 -729l237 729h205z" />
    <glyph glyph-name="thorn" unicode="&#xfe;" horiz-adv-x="993" 
d="M489 827q-233 -1 -233 -331t230 -330q118 0 178 89q59 89 59 251q0 226 -132 298q-44 24 -102 23zM264 -389h-190v1769h190v-471q100 94 236 92q194 0 303 -138q110 -138 110 -364q0 -227 -110 -370t-303 -143q-138 0 -236 96v-471z" />
    <glyph glyph-name="ydieresis" unicode="&#xff;" horiz-adv-x="907" 
d="M541 1159v221h180v-221h-180zM172 1159v221h178v-221h-178zM481 -199q-56 -171 -252 -173q-52 0 -73 5v166l71 2q42 0 60 21t32 61l41 115l-352 993h207l242 -729l237 729h205z" />
    <glyph glyph-name="Amacron" unicode="&#x100;" horiz-adv-x="1224" 
d="M315 1597v168h590v-168h-590zM397 532h428l-215 574zM-8 0l524 1380h195l522 -1380h-207l-129 344h-571l-127 -344h-207z" />
    <glyph glyph-name="amacron" unicode="&#x101;" horiz-adv-x="1075" 
d="M250 1212v168h590v-168h-590zM264 496q0 -157 62 -247t188 -89q231 0 229 336q0 170 -54 253t-172 83t-186 -90q-67 -89 -67 -246zM500 -14q-200 0 -313 145t-113 368t118 364t310 143q138 0 231 -93v78h189v-768q0 -65 77 -65h31v-156l-22 -4q-22 -4 -56 -4
q-141 0 -188 112q-99 -120 -264 -120z" />
    <glyph glyph-name="Abreve" unicode="&#x102;" horiz-adv-x="1224" 
d="M356 1769h142q0 -52 32 -86t67 -34q84 0 117 72q9 22 9 48h143q0 -112 -75 -185t-181 -73t-180 73t-74 185zM397 532h428l-215 574zM-8 0l524 1380h195l522 -1380h-207l-129 344h-571l-127 -344h-207z" />
    <glyph glyph-name="abreve" unicode="&#x103;" horiz-adv-x="1075" 
d="M291 1366h141q0 -52 32 -86q32 -35 68 -35q86 0 116 72q9 22 9 49h144q0 -110 -75 -184t-182 -74q-106 0 -180 72q-74 73 -73 186zM264 496q0 -157 62 -247t188 -89q231 0 229 336q0 170 -54 253t-172 83t-186 -90q-67 -89 -67 -246zM500 -14q-200 0 -313 145t-113 368
t118 364t310 143q138 0 231 -93v78h189v-768q0 -65 77 -65h31v-156l-22 -4q-22 -4 -56 -4q-141 0 -188 112q-99 -120 -264 -120z" />
    <glyph glyph-name="Aogonek" unicode="&#x104;" horiz-adv-x="1224" 
d="M1288 -474q-229 0 -229 264v100h164v-116q0 -73 24 -102t76 -27h39v-115q-48 -4 -74 -4zM397 532h428l-215 574zM-8 0l524 1380h195l522 -1380h-207l-129 344h-571l-127 -344h-207z" />
    <glyph glyph-name="aogonek" unicode="&#x105;" horiz-adv-x="1075" 
d="M1087 -474q-229 0 -229 264v100h164v-116q0 -106 57 -124q19 -6 43 -5h39v-115q-48 -4 -74 -4zM264 496q0 -157 62 -247t188 -89q231 0 229 336q0 170 -54 253t-172 83t-186 -90q-67 -89 -67 -246zM500 -14q-200 0 -313 145t-113 368t118 364t310 143q138 0 231 -93v78
h189v-768q0 -65 77 -65h31v-156l-22 -4q-22 -4 -56 -4q-141 0 -188 112q-99 -120 -264 -120z" />
    <glyph glyph-name="Cacute" unicode="&#x106;" horiz-adv-x="1271" 
d="M485 1513l199 265h223l-229 -265h-193zM659 166q280 0 351 260h207q-33 -202 -179 -326q-146 -123 -379 -125q-280 0 -430 193q-151 193 -151 525t152 522t432 190q230 0 374 -123t176 -317h-208q-41 178 -213 232q-57 17 -141 17q-178 -1 -273 -137t-95 -388
q1 -251 94 -387t283 -136z" />
    <glyph glyph-name="cacute" unicode="&#x107;" horiz-adv-x="978" 
d="M367 1116l198 264h223l-229 -264h-192zM264 496q0 -334 258 -334q90 0 142 43t67 117h193q-28 -156 -134 -246q-107 -90 -266 -88q-316 0 -419 294q-31 94 -31 214q0 238 121 373t325 137q167 0 272 -93t128 -241h-193q-37 159 -209 159q-118 -1 -186 -83t-68 -252z" />
    <glyph glyph-name="Ccircumflex" unicode="&#x108;" horiz-adv-x="1271" 
d="M322 1513l219 271h196l219 -271h-188l-131 144l-127 -144h-188zM659 166q280 0 351 260h207q-33 -202 -179 -326q-146 -123 -379 -125q-280 0 -430 193q-151 193 -151 525t152 522t432 190q230 0 374 -123t176 -317h-208q-41 178 -213 232q-57 17 -141 17
q-178 -1 -273 -137t-95 -388q1 -251 94 -387t283 -136z" />
    <glyph glyph-name="ccircumflex" unicode="&#x109;" horiz-adv-x="978" 
d="M176 1110l219 270h197l219 -270h-188l-131 143l-127 -143h-189zM264 496q0 -334 258 -334q90 0 142 43t67 117h193q-28 -156 -134 -246q-107 -90 -266 -88q-316 0 -419 294q-31 94 -31 214q0 238 121 373t325 137q167 0 272 -93t128 -241h-193q-37 159 -209 159
q-118 -1 -186 -83t-68 -252z" />
    <glyph glyph-name="Cdotaccent" unicode="&#x10a;" horiz-adv-x="1271" 
d="M543 1548v236h190v-236h-190zM659 166q280 0 351 260h207q-33 -202 -179 -326q-146 -123 -379 -125q-280 0 -430 193q-151 193 -151 525t152 522t432 190q230 0 374 -123t176 -317h-208q-41 178 -213 232q-57 17 -141 17q-178 -1 -273 -137t-95 -388q1 -251 94 -387
t283 -136z" />
    <glyph glyph-name="cdotaccent" unicode="&#x10b;" horiz-adv-x="978" 
d="M397 1145v235h191v-235h-191zM264 496q0 -334 258 -334q90 0 142 43t67 117h193q-28 -156 -134 -246q-107 -90 -266 -88q-316 0 -419 294q-31 94 -31 214q0 238 121 373t325 137q167 0 272 -93t128 -241h-193q-37 159 -209 159q-118 -1 -186 -83t-68 -252z" />
    <glyph glyph-name="Ccaron" unicode="&#x10c;" horiz-adv-x="1271" 
d="M330 1784h188l129 -146l129 146h189l-220 -271h-198zM659 166q280 0 351 260h207q-33 -202 -179 -326q-146 -123 -379 -125q-280 0 -430 193q-151 193 -151 525t152 522t432 190q230 0 374 -123t176 -317h-208q-41 178 -213 232q-57 17 -141 17q-178 -1 -273 -137
t-95 -388q1 -251 94 -387t283 -136z" />
    <glyph glyph-name="ccaron" unicode="&#x10d;" horiz-adv-x="978" 
d="M186 1386h189l129 -145l129 145h188l-219 -270h-199zM264 496q0 -334 258 -334q90 0 142 43t67 117h193q-28 -156 -134 -246q-107 -90 -266 -88q-316 0 -419 294q-31 94 -31 214q0 238 121 373t325 137q167 0 272 -93t128 -241h-193q-37 159 -209 159q-118 -1 -186 -83
t-68 -252z" />
    <glyph glyph-name="Dcaron" unicode="&#x10e;" 
d="M303 1784h189l129 -146l129 146h188l-219 -271h-199zM663 190q378 0 376 519q0 341 -213 446q-71 35 -168 35h-313v-1000h318zM142 0v1380h516q281 0 434 -185q152 -185 152 -500q0 -314 -152 -505q-152 -190 -438 -190h-512z" />
    <glyph glyph-name="dcaron" unicode="&#x10f;" horiz-adv-x="1353" 
d="M1139 989v391h174v-391h-174zM264 508q0 -348 242 -346q238 0 238 336t-238 333q-117 0 -180 -87q-62 -87 -62 -236zM489 -12q-196 0 -305 142q-110 142 -110 370q0 227 113 367q113 139 302 139q149 0 246 -103v477h189v-1380h-189v94q-102 -108 -246 -106z" />
    <glyph glyph-name="Dcroat" unicode="&#x110;" horiz-adv-x="1423" 
d="M760 188q379 0 379 521q0 343 -212 446q-71 35 -167 35h-305v-404h235v-172h-235v-426h305zM61 614v172h193v594h506q281 0 433 -185q151 -185 153 -482q0 -334 -152 -523q-152 -190 -434 -190h-506v614h-193z" />
    <glyph glyph-name="dcroat" unicode="&#x111;" horiz-adv-x="1056" 
d="M735 496q0 338 -235 338q-174 0 -223 -195q-15 -59 -15 -131q0 -346 238 -346q121 0 178 83t57 251zM483 -14q-192 0 -300 143q-109 143 -109 372t108 367t301 138q139 0 244 -109v174h-313v168h313v139h188v-139h144v-168h-144v-1071h-188v94q-103 -110 -244 -108z" />
    <glyph glyph-name="Emacron" unicode="&#x112;" horiz-adv-x="1148" 
d="M309 1597v168h590v-168h-590zM152 0v1380h944v-190h-742v-391h611v-191h-611v-418h742v-190h-944z" />
    <glyph glyph-name="emacron" unicode="&#x113;" horiz-adv-x="1017" 
d="M215 1212v168h590v-168h-590zM272 594h476q-13 167 -136 221q-43 19 -97 19q-103 1 -169 -66q-66 -66 -74 -174zM191 120q-117 133 -117 375q0 241 121 376t324 135t315 -141t110 -361l-4 -72h-672q14 -212 155 -256q42 -14 91 -14q169 0 215 139h193q-89 -313 -408 -313
q-205 0 -323 132z" />
    <glyph glyph-name="Ebreve" unicode="&#x114;" horiz-adv-x="1148" 
d="M383 1769h141q0 -51 32 -85q32 -35 68 -35q86 0 116 72q9 22 10 48h143q0 -111 -76 -185q-76 -73 -181 -73t-179 73t-74 185zM152 0v1380h944v-190h-742v-391h611v-191h-611v-418h742v-190h-944z" />
    <glyph glyph-name="ebreve" unicode="&#x115;" horiz-adv-x="1017" 
d="M262 1366h141q0 -52 32 -86q32 -35 68 -35q84 0 117 72q9 22 9 49h143q0 -112 -75 -185t-181 -73q-105 0 -179 72q-75 73 -75 186zM272 594h476q-13 167 -136 221q-43 19 -97 19q-103 1 -169 -66q-66 -66 -74 -174zM191 120q-117 133 -117 375q0 241 121 376t324 135
t315 -141t110 -361l-4 -72h-672q14 -212 155 -256q42 -14 91 -14q169 0 215 139h193q-89 -313 -408 -313q-205 0 -323 132z" />
    <glyph glyph-name="Edotaccent" unicode="&#x116;" horiz-adv-x="1148" 
d="M532 1542v236h191v-236h-191zM152 0v1380h944v-190h-742v-391h611v-191h-611v-418h742v-190h-944z" />
    <glyph glyph-name="edotaccent" unicode="&#x117;" horiz-adv-x="1017" 
d="M410 1159v236h190v-236h-190zM272 594h476q-13 167 -136 221q-43 19 -97 19q-103 1 -169 -66q-66 -66 -74 -174zM191 120q-117 133 -117 375q0 241 121 376t324 135t315 -141t110 -361l-4 -72h-672q14 -212 155 -256q42 -14 91 -14q169 0 215 139h193q-89 -313 -408 -313
q-205 0 -323 132z" />
    <glyph glyph-name="Eogonek" unicode="&#x118;" horiz-adv-x="1148" 
d="M784 -473q-229 0 -229 264v100h164v-116q0 -70 25 -104q23 -27 75 -25h39v-115q-48 -4 -74 -4zM152 0v1380h944v-190h-742v-391h611v-191h-611v-418h742v-190h-944z" />
    <glyph glyph-name="eogonek" unicode="&#x119;" horiz-adv-x="1017" 
d="M455 -210v100h163v-116q0 -106 57 -124q19 -6 44 -5h39v-115q-48 -4 -74 -4q-229 0 -229 264zM272 594h476q-13 167 -136 221q-43 19 -97 19q-103 1 -169 -66q-66 -66 -74 -174zM191 120q-117 133 -117 375q0 241 121 376t324 135t315 -141t110 -361l-4 -72h-672
q14 -212 155 -256q42 -14 91 -14q169 0 215 139h193q-89 -313 -408 -313q-205 0 -323 132z" />
    <glyph glyph-name="Ecaron" unicode="&#x11a;" horiz-adv-x="1148" 
d="M313 1784h189l129 -146l129 146h188l-219 -271h-199zM152 0v1380h944v-190h-742v-391h611v-191h-611v-418h742v-190h-944z" />
    <glyph glyph-name="ecaron" unicode="&#x11b;" horiz-adv-x="1017" 
d="M195 1386h188l129 -145l129 145h188l-219 -270h-198zM272 594h476q-13 167 -136 221q-43 19 -97 19q-103 1 -169 -66q-66 -66 -74 -174zM191 120q-117 133 -117 375q0 241 121 376t324 135t315 -141t110 -361l-4 -72h-672q14 -212 155 -256q42 -14 91 -14q169 0 215 139
h193q-89 -313 -408 -313q-205 0 -323 132z" />
    <glyph glyph-name="Gcircumflex" unicode="&#x11c;" horiz-adv-x="1314" 
d="M344 1513l219 271h197l219 -271h-188l-132 144l-127 -144h-188zM670 1405q224 0 369 -123q144 -123 173 -317h-206q-41 178 -210 232q-56 17 -140 17q-181 -1 -278 -136t-96 -388q1 -254 100 -390t282 -136t267 100q85 100 87 256v51h-430v189h633v-242q0 -237 -150 -391
t-417 -154t-421 193q-155 193 -155 527t153 523q154 189 439 189z" />
    <glyph glyph-name="gcircumflex" unicode="&#x11d;" horiz-adv-x="1060" 
d="M221 1110l219 270h197l219 -270h-188l-131 143l-127 -143h-189zM500 174q245 0 245 326q0 169 -57 251q-57 83 -175 83t-183 -88q-66 -88 -66 -234q0 -338 236 -338zM479 0q-193 0 -299 138t-106 363t112 364t306 141q146 0 245 -105v90h189v-911q0 -225 -106 -341
t-292 -116q-187 0 -293 82t-126 219h188q36 -129 215 -129q123 0 175 66t50 219v37q-104 -117 -258 -117z" />
    <glyph glyph-name="Gbreve" unicode="&#x11e;" horiz-adv-x="1314" 
d="M410 1769h141q0 -51 32 -85q32 -35 68 -35t66 13t44 47q15 34 15 60h144q0 -111 -76 -185q-76 -73 -181 -73t-179 72q-74 73 -74 186zM670 1405q224 0 369 -123q144 -123 173 -317h-206q-41 178 -210 232q-56 17 -140 17q-181 -1 -278 -136t-96 -388q1 -254 100 -390
t282 -136t267 100q85 100 87 256v51h-430v189h633v-242q0 -237 -150 -391t-417 -154t-421 193q-155 193 -155 527t153 523q154 189 439 189z" />
    <glyph glyph-name="gbreve" unicode="&#x11f;" horiz-adv-x="1060" 
d="M283 1366h141q0 -52 32 -86q32 -35 68 -35t66 13t44 47q15 34 15 61h144q0 -110 -75 -184t-181 -74t-180 72t-74 186zM500 174q245 0 245 326q0 169 -57 251q-57 83 -175 83t-183 -88q-66 -88 -66 -234q0 -338 236 -338zM479 0q-193 0 -299 138t-106 363t112 364t306 141
q146 0 245 -105v90h189v-911q0 -225 -106 -341t-292 -116q-187 0 -293 82t-126 219h188q36 -129 215 -129q123 0 175 66t50 219v37q-104 -117 -258 -117z" />
    <glyph glyph-name="Gdotaccent" unicode="&#x120;" horiz-adv-x="1314" 
d="M580 1548v236h190v-236h-190zM670 1405q224 0 369 -123q144 -123 173 -317h-206q-41 178 -210 232q-56 17 -140 17q-181 -1 -278 -136t-96 -388q1 -254 100 -390t282 -136t267 100q85 100 87 256v51h-430v189h633v-242q0 -237 -150 -391t-417 -154t-421 193
q-155 193 -155 527t153 523q154 189 439 189z" />
    <glyph glyph-name="gdotaccent" unicode="&#x121;" horiz-adv-x="1060" 
d="M442 1145v235h191v-235h-191zM500 174q245 0 245 326q0 169 -57 251q-57 83 -175 83t-183 -88q-66 -88 -66 -234q0 -338 236 -338zM479 0q-193 0 -299 138t-106 363t112 364t306 141q146 0 245 -105v90h189v-911q0 -225 -106 -341t-292 -116q-187 0 -293 82t-126 219h188
q36 -129 215 -129q123 0 175 66t50 219v37q-104 -117 -258 -117z" />
    <glyph glyph-name="Gcommaaccent" unicode="&#x122;" horiz-adv-x="1314" 
d="M512 -474q-26 0 -74 4v115h39q54 -1 70 19q31 36 31 110v116h161v-100q0 -264 -227 -264zM670 1405q224 0 369 -123q144 -123 173 -317h-206q-41 178 -210 232q-56 17 -140 17q-181 -1 -278 -136t-96 -388q1 -254 100 -390t282 -136t267 100q85 100 87 256v51h-430v189
h633v-242q0 -237 -150 -391t-417 -154t-421 193q-155 193 -155 527t153 523q154 189 439 189z" />
    <glyph glyph-name="gcommaaccent" unicode="&#x123;" horiz-adv-x="1067" 
d="M383 1116l199 264h223l-230 -264h-192zM500 174q245 0 245 326q0 169 -57 251q-57 83 -175 83t-183 -88q-66 -88 -66 -234q0 -338 236 -338zM479 0q-193 0 -299 138t-106 363t112 364t306 141q146 0 245 -105v90h189v-911q0 -225 -106 -341t-292 -116q-187 0 -293 82
t-126 219h188q36 -129 215 -129q123 0 175 66t50 219v37q-104 -117 -258 -117z" />
    <glyph glyph-name="Hcircumflex" unicode="&#x124;" horiz-adv-x="1318" 
d="M342 1513l219 271h197l219 -271h-189l-131 144l-127 -144h-188zM152 0v1380h202v-581h611v581h202v-1380h-202v608h-611v-608h-202z" />
    <glyph glyph-name="hcircumflex" unicode="&#x125;" horiz-adv-x="1054" 
d="M209 1450l219 270h197l219 -270h-189l-131 143l-127 -143h-188zM330 903q101 103 262 103t250 -105q90 -105 90 -276v-625h-189v610q0 110 -53 167t-146 58q-92 1 -153 -71t-61 -225v-539h-189v1380h189v-477z" />
    <glyph glyph-name="Hbar" unicode="&#x126;" horiz-adv-x="1318" 
d="M354 799h613v250h-613v-250zM16 1049v172h136v159h202v-159h613v159h200v-159h121v-172h-121v-1049h-200v608h-613v-608h-202v1049h-136z" />
    <glyph glyph-name="hbar" unicode="&#x127;" horiz-adv-x="1044" 
d="M6 1071v168h135v141h189v-141h286v-168h-286v-168q97 101 258 101t247 -104q87 -104 87 -277v-623h-189v608q0 108 -51 166t-142 59q-92 1 -151 -71t-59 -225v-537h-189v1071h-135z" />
    <glyph glyph-name="Itilde" unicode="&#x128;" horiz-adv-x="505" 
d="M376 1708q58 0 76 84h151q-27 -167 -134 -218q-38 -18 -88 -18t-142 42l-62 29q-29 13 -51 13q-52 0 -70 -79h-151q48 231 225 231q53 0 137 -42l61 -29q29 -13 48 -13zM158 0v1380h202v-1380h-202z" />
    <glyph glyph-name="itilde" unicode="&#x129;" horiz-adv-x="458" 
d="M108 1389q45 0 137 -42l60 -29q29 -13 52 -13q55 0 72 84h152q-18 -110 -70 -168q-57 -68 -152 -68q-56 0 -143 42l-61 29q-29 13 -52 13q-51 0 -69 -80h-152q48 232 226 232zM139 0v991h189v-991h-189z" />
    <glyph glyph-name="Imacron" unicode="&#x12a;" horiz-adv-x="505" 
d="M-40 1597v168h590v-168h-590zM158 0v1380h202v-1380h-202z" />
    <glyph glyph-name="imacron" unicode="&#x12b;" horiz-adv-x="458" 
d="M139 0v991h189v-991h-189zM-65 1212v168h590v-168h-590z" />
    <glyph glyph-name="Ibreve" unicode="&#x12c;" horiz-adv-x="505" 
d="M-1 1769h141q0 -51 32 -85q32 -35 68 -35q86 0 116 72q9 22 10 48h143q0 -111 -76 -185q-76 -73 -181 -73t-179 73t-74 185zM158 0v1380h202v-1380h-202z" />
    <glyph glyph-name="ibreve" unicode="&#x12d;" horiz-adv-x="458" 
d="M-24 1366h142q0 -81 68 -112q20 -9 54 -9t69 35q34 35 34 86h143q0 -110 -75 -184t-180 -74q-106 0 -180 72q-75 73 -75 186zM139 0v991h189v-991h-189z" />
    <glyph glyph-name="Iogonek" unicode="&#x12e;" horiz-adv-x="505" 
d="M399 -473q-229 0 -229 264v100h164v-116q0 -73 24 -102t76 -27h39v-115q-48 -4 -74 -4zM152 0v1380h202v-1380h-202z" />
    <glyph glyph-name="iogonek" unicode="&#x12f;" horiz-adv-x="466" 
d="M383 -473q-229 0 -229 264v100h163v-116q0 -106 57 -124q19 -6 44 -5h39v-115q-48 -4 -74 -4zM139 0v991h189v-991h-189zM137 1145v235h193v-235h-193z" />
    <glyph glyph-name="Idotaccent" unicode="&#x130;" horiz-adv-x="505" 
d="M159 1548v236h190v-236h-190zM152 0v1380h202v-1380h-202z" />
    <glyph glyph-name="dotlessi" unicode="&#x131;" horiz-adv-x="464" 
d="M137 0v991h189v-991h-189z" />
    <glyph glyph-name="IJ" unicode="&#x132;" horiz-adv-x="1431" 
d="M892 164q96 0 146 59q49 59 49 158v999h203v-999q0 -172 -101 -288t-292 -117q-190 -1 -292 111t-111 282h202q1 -39 15 -76q29 -77 99 -111q34 -18 82 -18zM152 0v1380h202v-1380h-202z" />
    <glyph glyph-name="ij" unicode="&#x133;" horiz-adv-x="933" 
d="M606 1145v235h193v-235h-193zM526 -375q-50 0 -86 10v160h54q56 0 76 12q40 24 38 74v1110h189v-1100q0 -84 -24 -135q-61 -131 -247 -131zM137 0v991h189v-991h-189zM135 1145v235h193v-235h-193z" />
    <glyph glyph-name="Jcircumflex" unicode="&#x134;" horiz-adv-x="866" 
d="M303 1513l219 271h197l219 -271h-188l-132 144l-126 -144h-189zM527 381v999h203v-999q0 -172 -101 -288t-292 -117q-190 -1 -293 112t-111 281h203q2 -81 55 -143t145 -62q93 0 142 59q49 60 49 158z" />
    <glyph glyph-name="jcircumflex" unicode="&#x135;" horiz-adv-x="466" 
d="M57 -403q-50 0 -86 10v160h54q58 -1 77 11q39 23 37 75v1138h189v-1128q0 -84 -24 -136q-60 -130 -247 -130zM-84 1110l219 270h197l219 -270h-189l-131 143l-127 -143h-188z" />
    <glyph glyph-name="Kcommaaccent" unicode="&#x136;" horiz-adv-x="1257" 
d="M487 -474q-27 0 -73 4v115h39q53 -1 69 19q31 36 31 110v116h162v-100q0 -264 -228 -264zM152 0v1380h202v-661l594 661h258l-504 -551l553 -829h-241l-449 680l-211 -231v-449h-202z" />
    <glyph glyph-name="kcommaaccent" unicode="&#x137;" horiz-adv-x="964" 
d="M350 -474q-26 0 -74 4v115h39q54 -1 70 19q31 36 31 110v116h162v-100q0 -264 -228 -264zM135 0v1380h189v-802l385 413h233l-371 -401l408 -590h-234l-307 457l-114 -119v-338h-189z" />
    <glyph glyph-name="kgreenlandic" unicode="&#x138;" horiz-adv-x="970" 
d="M948 825h-100q-52 0 -80 -26l-207 -224l406 -575h-236l-301 446l-100 -100v-346h-189v991h189v-401l301 328q106 113 317 71v-164z" />
    <glyph glyph-name="Lacute" unicode="&#x139;" horiz-adv-x="1040" 
d="M169 1513l199 265h223l-230 -265h-192zM152 0v1380h202v-1190h711v-190h-913z" />
    <glyph glyph-name="lacute" unicode="&#x13a;" horiz-adv-x="526" 
d="M163 1513l198 265h224l-230 -265h-192zM388 -6q-113 0 -168 50q-73 64 -73 218v1118h189v-1124q0 -55 22 -75q22 -19 68 -17h31v-160q-20 -10 -69 -10z" />
    <glyph glyph-name="Lcommaaccent" unicode="&#x13b;" horiz-adv-x="1040" 
d="M467 -474q-26 0 -74 4v115h39q54 -1 70 19q32 37 30 110v116h162v-100q0 -264 -227 -264zM152 0v1380h202v-1190h711v-190h-913z" />
    <glyph glyph-name="lcommaaccent" unicode="&#x13c;" horiz-adv-x="518" 
d="M217 -474q-26 0 -74 4v115h39q54 -1 70 19q31 36 31 110v116h161v-100q0 -264 -227 -264zM380 -6q-113 0 -168 50q-73 64 -73 218v1118h189v-1124q0 -57 22 -75t68 -17h31v-160q-20 -10 -69 -10z" />
    <glyph glyph-name="Lcaron" unicode="&#x13d;" horiz-adv-x="1040" 
d="M625 989v391h174v-391h-174zM152 0v1380h202v-1190h711v-190h-913z" />
    <glyph glyph-name="lcaron" unicode="&#x13e;" horiz-adv-x="741" 
d="M520 989v391h174v-391h-174zM370 -6q-112 0 -168 50q-73 64 -73 218v1118h188v-1124q0 -55 21 -75q21 -19 70 -17h30v-160q-20 -10 -68 -10z" />
    <glyph glyph-name="Ldot" unicode="&#x13f;" horiz-adv-x="1040" 
d="M580 470v272h194v-272h-194zM152 0v1380h202v-1190h711v-190h-913z" />
    <glyph glyph-name="ldot" unicode="&#x140;" horiz-adv-x="919" 
d="M606 473v272h195v-272h-195zM388 -6q-113 0 -168 50q-73 64 -73 218v1118h189v-1124q0 -55 22 -75q22 -19 68 -17h31v-160q-20 -10 -69 -10z" />
    <glyph glyph-name="Lslash" unicode="&#x141;" horiz-adv-x="1075" 
d="M158 1380h200v-604l416 178v-194l-416 -178v-392h693v-190h-893v498l-115 -52v195l115 49v690z" />
    <glyph glyph-name="lslash" unicode="&#x142;" horiz-adv-x="651" 
d="M186 258v227l-131 -57v193l131 57v684h189v-602l188 84v-193l-188 -84v-319q0 -73 49 -82q16 -3 39 -2h55v-160q-93 -20 -159 -5q-65 15 -99 43q-74 62 -74 216z" />
    <glyph glyph-name="Nacute" unicode="&#x143;" 
d="M475 1513l199 265h223l-229 -265h-193zM152 0v1380h202l613 -1011v1011h202v-1380h-202l-613 1016v-1016h-202z" />
    <glyph glyph-name="nacute" unicode="&#x144;" horiz-adv-x="1048" 
d="M375 1116l198 264h224l-230 -264h-192zM135 0v991h189v-86q100 101 261 101t251 -104t90 -277v-625h-189v610q0 156 -105 208q-36 18 -85 18q-157 0 -207 -164q-16 -56 -16 -133v-539h-189z" />
    <glyph glyph-name="Ncommaaccent" unicode="&#x145;" 
d="M526 -474q-27 0 -73 4v115h39q53 -1 69 19q31 36 31 110v116h162v-100q0 -264 -228 -264zM152 0v1380h202l613 -1011v1011h202v-1380h-202l-613 1016v-1016h-202z" />
    <glyph glyph-name="ncommaaccent" unicode="&#x146;" horiz-adv-x="1048" 
d="M367 -474q-28 0 -74 4v115h39q52 0 76 27t24 102v116h162v-100q0 -264 -227 -264zM135 0v991h189v-86q100 101 261 101t251 -104t90 -277v-625h-189v610q0 156 -105 208q-36 18 -85 18q-157 0 -207 -164q-16 -56 -16 -133v-539h-189z" />
    <glyph glyph-name="Ncaron" unicode="&#x147;" 
d="M342 1784h188l129 -146l129 146h189l-219 -271h-199zM152 0v1380h202l613 -1011v1011h202v-1380h-202l-613 1016v-1016h-202z" />
    <glyph glyph-name="ncaron" unicode="&#x148;" horiz-adv-x="1048" 
d="M205 1386h188l129 -145l129 145h189l-219 -270h-199zM135 0v991h189v-86q100 101 261 101t251 -104t90 -277v-625h-189v610q0 156 -105 208q-36 18 -85 18q-157 0 -207 -164q-16 -56 -16 -133v-539h-189z" />
    <glyph glyph-name="napostrophe" unicode="&#x149;" horiz-adv-x="1271" 
d="M358 0v991h189v-86q100 101 261 101t251 -104t90 -277v-625h-188v610q0 96 -48 161t-141 65q-159 0 -209 -164q-16 -56 -16 -133v-539h-189zM47 989v391h174v-391h-174z" />
    <glyph glyph-name="Eng" unicode="&#x14a;" horiz-adv-x="1300" 
d="M1149 -137q0 -266 -279 -266q-50 0 -86 10v160h54q57 -1 77 11q39 22 37 75v135l-598 1028v-1016h-202v1380h204l592 -1013v1013h201v-1517z" />
    <glyph glyph-name="eng" unicode="&#x14b;" horiz-adv-x="1038" 
d="M915 -137q0 -266 -270 -266q-49 0 -86 10v160h53q59 -1 78 11q37 22 37 75v755q0 88 -49 157t-133 69q-221 0 -221 -297v-537h-189v991h189v-90q103 103 261 103t244 -105t86 -276v-760z" />
    <glyph glyph-name="Omacron" unicode="&#x14c;" 
d="M365 1597v168h589v-168h-589zM657 1214q-276 0 -350 -294q-24 -96 -24 -222q0 -394 210 -498q71 -36 165 -36t167 36q213 106 213 486q0 379 -211 490q-72 38 -170 38zM78 696q0 331 154 520t430 189q277 0 429 -198t152 -517t-150 -517t-431 -199q-282 -1 -433 195
t-151 527z" />
    <glyph glyph-name="omacron" unicode="&#x14d;" horiz-adv-x="1026" 
d="M217 1212v168h590v-168h-590zM264 502q0 -340 248 -340t250 340q0 236 -140 306q-47 23 -108 23q-116 1 -183 -81t-67 -248zM74 499q0 240 123 373q118 132 318 133t319 -140q120 -141 119 -373t-119 -368t-322 -136t-321 136q-117 135 -117 375z" />
    <glyph glyph-name="Obreve" unicode="&#x14e;" 
d="M406 1769h141q0 -51 32 -85q32 -35 68 -35q83 0 116 72q9 22 9 48h143q0 -112 -75 -185t-181 -73q-105 0 -179 72q-74 73 -74 186zM657 1214q-276 0 -350 -294q-24 -96 -24 -222q0 -394 210 -498q71 -36 165 -36t167 36q213 106 213 486q0 379 -211 490q-72 38 -170 38z
M78 696q0 331 154 520t430 189q277 0 429 -198t152 -517t-150 -517t-431 -199q-282 -1 -433 195t-151 527z" />
    <glyph glyph-name="obreve" unicode="&#x14f;" horiz-adv-x="1026" 
d="M258 1366h141q0 -52 32 -86q32 -35 68 -35q86 0 116 72q9 22 10 49h143q0 -112 -75 -185t-181 -73q-105 0 -179 72q-75 73 -75 186zM264 502q0 -340 248 -340t250 340q0 236 -140 306q-47 23 -108 23q-116 1 -183 -81t-67 -248zM74 499q0 240 123 373q118 132 318 133
t319 -140q120 -141 119 -373t-119 -368t-322 -136t-321 136q-117 135 -117 375z" />
    <glyph glyph-name="Ohungarumlaut" unicode="&#x150;" 
d="M653 1505l207 271h213l-256 -271h-164zM330 1505l209 271h211l-254 -271h-166zM657 1214q-276 0 -350 -294q-24 -96 -24 -222q0 -394 210 -498q71 -36 165 -36t167 36q213 106 213 486q0 379 -211 490q-72 38 -170 38zM78 696q0 331 154 520t430 189q277 0 429 -198
t152 -517t-150 -517t-431 -199q-282 -1 -433 195t-151 527z" />
    <glyph glyph-name="ohungarumlaut" unicode="&#x151;" horiz-adv-x="1026" 
d="M526 1106l207 270h213l-256 -270h-164zM203 1106l209 270h211l-254 -270h-166zM264 502q0 -340 248 -340t250 340q0 236 -140 306q-47 23 -108 23q-116 1 -183 -81t-67 -248zM74 499q0 240 123 373q118 132 318 133t319 -140q120 -141 119 -373t-119 -368t-322 -136
t-321 136q-117 135 -117 375z" />
    <glyph glyph-name="OE" unicode="&#x152;" horiz-adv-x="1900" 
d="M659 1214q-276 0 -350 -294q-24 -96 -24 -222q0 -389 210 -497q70 -35 164 -35q200 0 293 147v752q-97 149 -293 149zM78 698q0 329 154 518t427 189q167 0 293 -78v53h865v-190h-664v-391h549v-191h-549v-420h664v-188h-865v49q-122 -74 -279 -75q-157 0 -265 52
q-215 104 -293 376q-37 134 -37 296z" />
    <glyph glyph-name="oe" unicode="&#x153;" horiz-adv-x="1693" 
d="M1425 596q-14 236 -231 240q-153 0 -216 -139q-20 -45 -24 -101h471zM262 502q0 -340 246 -340t248 340q0 235 -139 308q-46 24 -107 24q-114 0 -181 -83t-67 -249zM510 -12q-206 0 -321 136t-115 375t121 373q116 132 315 134q234 0 340 -191q105 191 331 191t333 -132
q106 -132 106 -350q0 -66 -4 -90h-664q11 -212 146 -260q42 -14 104 -14t120 34q56 34 81 107h194q-89 -313 -403 -313q-242 0 -344 186q-105 -188 -340 -186z" />
    <glyph glyph-name="Racute" unicode="&#x154;" horiz-adv-x="1277" 
d="M410 1513l198 265h223l-229 -265h-192zM354 748h383q116 0 174 68t58 150t-60 153t-172 71h-383v-442zM152 0v1380h585q209 0 333 -138q102 -115 104 -277q0 -118 -72 -229q-72 -112 -205 -154l338 -582h-231l-320 557h-330v-557h-202z" />
    <glyph glyph-name="racute" unicode="&#x155;" horiz-adv-x="667" 
d="M146 1116l199 264h223l-229 -264h-193zM659 807h-61q-133 0 -203 -74q-71 -74 -71 -252v-481h-189v991h189v-137q95 150 245 152q30 0 90 -11v-188z" />
    <glyph glyph-name="Rcommaaccent" unicode="&#x156;" horiz-adv-x="1277" 
d="M518 -473q-26 0 -74 4v115h39q54 0 70 20q31 36 31 109v116h161v-100q0 -264 -227 -264zM354 748h383q116 0 174 68t58 150t-60 153t-172 71h-383v-442zM152 0v1380h585q209 0 333 -138q102 -115 104 -277q0 -118 -72 -229q-72 -112 -205 -154l338 -582h-231l-320 557
h-330v-557h-202z" />
    <glyph glyph-name="rcommaaccent" unicode="&#x157;" horiz-adv-x="673" 
d="M89 -473q-26 0 -74 4v115h39q54 0 70 20q31 36 31 109v116h161v-100q0 -264 -227 -264zM666 807h-62q-131 0 -202 -74q-72 -74 -72 -252v-481h-189v991h189v-137q95 150 245 152q25 0 91 -11v-188z" />
    <glyph glyph-name="Rcaron" unicode="&#x158;" horiz-adv-x="1277" 
d="M295 1784h188l129 -146l129 146h189l-219 -271h-199zM354 748h383q116 0 174 68t58 150t-60 153t-172 71h-383v-442zM152 0v1380h585q209 0 333 -138q102 -115 104 -277q0 -118 -72 -229q-72 -112 -205 -154l338 -582h-231l-320 557h-330v-557h-202z" />
    <glyph glyph-name="rcaron" unicode="&#x159;" horiz-adv-x="665" 
d="M24 1386h188l129 -145l129 145h188l-219 -270h-198zM656 807h-61q-133 0 -203 -74q-71 -74 -71 -252v-481h-189v991h189v-137q95 150 245 152q29 0 90 -11v-188z" />
    <glyph glyph-name="Sacute" unicode="&#x15a;" horiz-adv-x="1179" 
d="M401 1513l199 265h223l-229 -265h-193zM574 162q227 0 298 127q23 41 23 98t-24 95q-43 69 -224 115l-219 56q-228 59 -297 235q-25 60 -25 140t36 150q71 142 249 199q88 28 187 28q328 0 449 -228q45 -84 54 -190h-209q-15 159 -157 212q-54 20 -123 20
q-134 0 -208 -52q-75 -52 -75 -143q0 -54 24 -88q41 -57 219 -105l212 -53q236 -60 310 -241q26 -67 26 -157q0 -183 -145 -295t-387 -112q-243 0 -385 151q-113 120 -130 296h211q11 -112 83 -178q83 -80 227 -80z" />
    <glyph glyph-name="sacute" unicode="&#x15b;" horiz-adv-x="921" 
d="M285 1116l198 264h224l-230 -264h-192zM850 285q0 -130 -105 -215q-105 -84 -280 -83t-282 91t-113 231h190q5 -71 55 -112q49 -41 147 -41t150 33t52 76t-12 63q-22 37 -141 68l-161 42q-256 64 -256 271q0 117 92 206t268 90q175 1 274 -88t110 -235h-191
q-13 156 -198 160q-121 0 -159 -80q-41 -89 60 -129q37 -14 162 -44t182 -58q156 -75 156 -246z" />
    <glyph glyph-name="Scircumflex" unicode="&#x15c;" horiz-adv-x="1179" 
d="M279 1513l219 271h196l219 -271h-188l-131 144l-127 -144h-188zM574 162q227 0 298 127q23 41 23 98t-24 95q-43 69 -224 115l-219 56q-228 59 -297 235q-25 60 -25 140t36 150q71 142 249 199q88 28 187 28q328 0 449 -228q45 -84 54 -190h-209q-15 159 -157 212
q-54 20 -123 20q-134 0 -208 -52q-75 -52 -75 -143q0 -54 24 -88q41 -57 219 -105l212 -53q236 -60 310 -241q26 -67 26 -157q0 -183 -145 -295t-387 -112q-243 0 -385 151q-113 120 -130 296h211q11 -112 83 -178q83 -80 227 -80z" />
    <glyph glyph-name="scircumflex" unicode="&#x15d;" horiz-adv-x="921" 
d="M145 1110l220 270h196l219 -270h-188l-131 143l-127 -143h-189zM850 285q0 -130 -105 -215q-105 -84 -280 -83t-282 91t-113 231h190q5 -71 55 -112q49 -41 147 -41t150 33t52 76t-12 63q-22 37 -141 68l-161 42q-256 64 -256 271q0 117 92 206t268 90q175 1 274 -88
t110 -235h-191q-13 156 -198 160q-121 0 -159 -80q-41 -89 60 -129q37 -14 162 -44t182 -58q156 -75 156 -246z" />
    <glyph glyph-name="Scedilla" unicode="&#x15e;" horiz-adv-x="1179" 
d="M422 -473q-26 0 -74 4v115h39q54 0 70 20q32 37 30 109v116h162v-100q0 -264 -227 -264zM574 162q227 0 298 127q23 41 23 98t-24 95q-43 69 -224 115l-219 56q-228 59 -297 235q-25 60 -25 140t36 150q71 142 249 199q88 28 187 28q328 0 449 -228q45 -84 54 -190h-209
q-15 159 -157 212q-54 20 -123 20q-134 0 -208 -52q-75 -52 -75 -143q0 -54 24 -88q41 -57 219 -105l212 -53q236 -60 310 -241q26 -67 26 -157q0 -183 -145 -295t-387 -112q-243 0 -385 151q-113 120 -130 296h211q11 -112 83 -178q83 -80 227 -80z" />
    <glyph glyph-name="scedilla" unicode="&#x15f;" horiz-adv-x="921" 
d="M328 -473q-28 0 -74 4v115h39q52 0 69 20q32 36 31 109v116h162v-100q0 -264 -227 -264zM850 285q0 -130 -105 -215q-105 -84 -280 -83t-282 91t-113 231h190q5 -71 55 -112q49 -41 147 -41t150 33t52 76t-12 63q-22 37 -141 68l-161 42q-256 64 -256 271q0 117 92 206
t268 90q175 1 274 -88t110 -235h-191q-13 156 -198 160q-121 0 -159 -80q-41 -89 60 -129q37 -14 162 -44t182 -58q156 -75 156 -246z" />
    <glyph glyph-name="Scaron" unicode="&#x160;" horiz-adv-x="1179" 
d="M260 1788h189l129 -146l129 146h188l-219 -270h-199zM574 162q227 0 298 127q23 41 23 98t-24 95q-43 69 -224 115l-219 56q-228 59 -297 235q-25 60 -25 140t36 150q71 142 249 199q88 28 187 28q328 0 449 -228q45 -84 54 -190h-209q-15 159 -157 212q-54 20 -123 20
q-134 0 -208 -52q-75 -52 -75 -143q0 -54 24 -88q41 -57 219 -105l212 -53q236 -60 310 -241q26 -67 26 -157q0 -183 -145 -295t-387 -112q-243 0 -385 151q-113 120 -130 296h211q11 -112 83 -178q83 -80 227 -80z" />
    <glyph glyph-name="scaron" unicode="&#x161;" horiz-adv-x="921" 
d="M139 1386h189l129 -145l129 145h188l-219 -270h-199zM850 285q0 -130 -105 -215q-105 -84 -280 -83t-282 91t-113 231h190q5 -71 55 -112q49 -41 147 -41t150 33t52 76t-12 63q-22 37 -141 68l-161 42q-256 64 -256 271q0 117 92 206t268 90q175 1 274 -88t110 -235h-191
q-13 156 -198 160q-121 0 -159 -80q-41 -89 60 -129q37 -14 162 -44t182 -58q156 -75 156 -246z" />
    <glyph glyph-name="Tcommaaccent" unicode="&#x162;" horiz-adv-x="1073" 
d="M391 -473q-26 0 -74 4v115h39q54 0 70 20q31 36 31 109v116h161v-100q0 -264 -227 -264zM32 1190v190h1018v-190h-406v-1190h-203v1190h-409z" />
    <glyph glyph-name="tcommaaccent" unicode="&#x163;" horiz-adv-x="688" 
d="M332 -473q-26 0 -74 4v115h39q52 0 69 20q32 36 31 109v116h162v-100q0 -264 -227 -264zM201 262v557h-158v172h158v383h188v-383h213v-172h-213v-563q0 -96 105 -92h67v-160q-61 -12 -107 -11q-117 3 -173 51q-80 64 -80 218z" />
    <glyph glyph-name="Tcaron" unicode="&#x164;" horiz-adv-x="1073" 
d="M225 1784h189l129 -146l129 146h188l-219 -271h-199zM32 1190v190h1018v-190h-406v-1190h-203v1190h-409z" />
    <glyph glyph-name="tcaron" unicode="&#x165;" horiz-adv-x="923" 
d="M735 989v391h174v-391h-174zM201 262v557h-158v172h158v383h188v-383h213v-172h-213v-563q0 -96 105 -92h67v-160q-61 -12 -107 -11q-117 3 -173 51q-80 64 -80 218z" />
    <glyph glyph-name="Tbar" unicode="&#x166;" horiz-adv-x="1073" 
d="M41 1190v190h995v-190h-391v-414h207v-172h-207v-604h-207v604h-217v172h217v414h-397z" />
    <glyph glyph-name="tbar" unicode="&#x167;" horiz-adv-x="667" 
d="M199 262v234h-158v170h158v153h-158v172h158v383h188v-383h213v-172h-213v-153h213v-170h-213v-240q0 -96 105 -92h67v-160q-61 -12 -107 -11q-117 3 -173 51q-80 64 -80 218z" />
    <glyph glyph-name="Utilde" unicode="&#x168;" horiz-adv-x="1296" 
d="M760 1708q58 0 76 84h151q-27 -167 -134 -218q-38 -18 -88 -18t-142 42l-62 29q-29 13 -51 13q-52 0 -70 -79h-151q48 231 225 231q53 0 137 -42l61 -29q29 -13 48 -13zM958 1380h203v-862q0 -274 -141 -410q-141 -135 -373 -135q-357 0 -469 295q-39 104 -39 250v862
h203v-856q0 -360 305 -358q313 0 311 358v856z" />
    <glyph glyph-name="utilde" unicode="&#x169;" horiz-adv-x="1048" 
d="M647 1305q59 0 76 84h151q-27 -167 -134 -218q-38 -18 -91 -18t-139 42l-61 29q-29 13 -52 13q-51 0 -69 -80h-152q34 161 137 214q37 18 85 18t141 -42l60 -29q29 -13 48 -13zM123 369v622h188v-608q0 -110 54 -167q54 -58 135 -58q225 0 225 313v520h188v-991h-188v90
q-100 -104 -263 -103t-251 106q-88 104 -88 276z" />
    <glyph glyph-name="Umacron" unicode="&#x16a;" horiz-adv-x="1300" 
d="M354 1597v168h590v-168h-590zM958 1380h203v-862q0 -274 -141 -410q-141 -135 -373 -135q-357 0 -469 295q-39 104 -39 250v862h203v-856q0 -360 305 -358q313 0 311 358v856z" />
    <glyph glyph-name="umacron" unicode="&#x16b;" horiz-adv-x="1048" 
d="M227 1212v168h590v-168h-590zM123 369v622h188v-608q0 -110 54 -167q54 -58 135 -58q225 0 225 313v520h188v-991h-188v90q-100 -104 -263 -103t-251 106q-88 104 -88 276z" />
    <glyph glyph-name="Ubreve" unicode="&#x16c;" horiz-adv-x="1296" 
d="M383 1769h141q0 -51 32 -85q32 -35 68 -35q86 0 116 72q9 22 10 48h143q0 -111 -76 -185q-76 -73 -181 -73t-179 73t-74 185zM958 1380h203v-862q0 -274 -141 -410q-141 -135 -373 -135q-357 0 -469 295q-39 104 -39 250v862h203v-856q0 -360 305 -358q313 0 311 358v856
z" />
    <glyph glyph-name="ubreve" unicode="&#x16d;" horiz-adv-x="1048" 
d="M268 1366h142q0 -53 32 -87t67 -34q84 0 117 72q9 22 9 49h143q0 -112 -75 -185t-181 -73q-105 0 -179 72q-75 73 -75 186zM123 369v622h188v-608q0 -110 54 -167q54 -58 135 -58q225 0 225 313v520h188v-991h-188v90q-100 -104 -263 -103t-251 106q-88 104 -88 276z" />
    <glyph glyph-name="Uring" unicode="&#x16e;" horiz-adv-x="1300" 
d="M553 1720q0 -20 8 -38q27 -62 90 -62q39 0 61 22q59 56 32 116q-28 61 -92 61t-91 -62q-8 -17 -8 -37zM444 1720q0 84 60 144t148 61q88 -1 148 -61t60 -147t-61 -143q-59 -59 -147 -60t-148 60q-60 62 -60 146zM958 1380h203v-862q0 -274 -141 -410q-141 -135 -373 -135
q-357 0 -469 295q-39 104 -39 250v862h203v-856q0 -360 305 -358q313 0 311 358v856z" />
    <glyph glyph-name="uring" unicode="&#x16f;" horiz-adv-x="1048" 
d="M461 1241q37 -37 99 -15q60 27 63 93q0 38 -31 69t-60 30q-28 0 -46 -8t-32 -22q-30 -30 -30 -70t37 -77zM670 1463q61 -61 61 -147q-1 -86 -61 -145t-148 -59t-148 60q-59 60 -59 146q0 84 60 144t147 61t148 -60zM123 369v622h188v-608q0 -110 54 -167q54 -58 135 -58
q225 0 225 313v520h188v-991h-188v90q-100 -104 -263 -103t-251 106q-88 104 -88 276z" />
    <glyph glyph-name="Uhungarumlaut" unicode="&#x170;" horiz-adv-x="1300" 
d="M623 1505l206 271h213l-256 -271h-163zM299 1505l209 271h211l-254 -271h-166zM958 1380h203v-862q0 -274 -141 -410q-141 -135 -373 -135q-357 0 -469 295q-39 104 -39 250v862h203v-856q0 -360 305 -358q313 0 311 358v856z" />
    <glyph glyph-name="uhungarumlaut" unicode="&#x171;" horiz-adv-x="1048" 
d="M537 1106l206 270h213l-256 -270h-163zM213 1106l209 270h211l-254 -270h-166zM123 369v622h188v-608q0 -110 54 -167q54 -58 135 -58q225 0 225 313v520h188v-991h-188v90q-100 -104 -263 -103t-251 106q-88 104 -88 276z" />
    <glyph glyph-name="Uogonek" unicode="&#x172;" horiz-adv-x="1300" 
d="M811 -473q-229 0 -229 264v100h163v-116q0 -106 57 -124q19 -6 44 -5h39v-115q-48 -4 -74 -4zM958 1380h203v-862q0 -274 -141 -410q-141 -135 -373 -135q-357 0 -469 295q-39 104 -39 250v862h203v-856q0 -360 305 -358q313 0 311 358v856z" />
    <glyph glyph-name="uogonek" unicode="&#x173;" horiz-adv-x="1048" 
d="M973 -474q-225 0 -230 264v100h164v-116q0 -106 57 -124q19 -6 44 -5h39v-115q-48 -4 -74 -4zM123 369v622h188v-608q0 -110 54 -167q54 -58 135 -58q225 0 225 313v520h188v-991h-188v90q-100 -104 -263 -103t-251 106q-88 104 -88 276z" />
    <glyph glyph-name="Wcircumflex" unicode="&#x174;" horiz-adv-x="1638" 
d="M504 1513l219 271h197l219 -271h-189l-131 144l-127 -144h-188zM-3 1380h211l248 -1018l272 1018h178l275 -1015l247 1015h209l-356 -1380h-186l-277 1049l-284 -1049h-181z" />
    <glyph glyph-name="wcircumflex" unicode="&#x175;" horiz-adv-x="1357" 
d="M360 1110l220 270h196l219 -270h-188l-131 143l-127 -143h-189zM18 991h205l174 -680l199 680h166l199 -680l176 680h202l-290 -991h-166l-205 686l-203 -686h-166z" />
    <glyph glyph-name="Ycircumflex" unicode="&#x176;" horiz-adv-x="1101" 
d="M229 1513l220 271h196l219 -271h-188l-131 144l-127 -144h-189zM653 0h-202v555l-455 825h229l326 -616l330 616h225l-453 -825v-555z" />
    <glyph glyph-name="ycircumflex" unicode="&#x177;" horiz-adv-x="907" 
d="M138 1110l219 270h197l219 -270h-188l-131 143l-127 -143h-189zM481 -199q-56 -171 -252 -173q-52 0 -73 5v166l71 2q42 0 60 21t32 61l41 115l-352 993h207l242 -729l237 729h205z" />
    <glyph glyph-name="Ydieresis" unicode="&#x178;" horiz-adv-x="1101" 
d="M643 1563v221h180v-221h-180zM274 1563v221h179v-221h-179zM653 0h-202v555l-455 825h229l326 -616l330 616h225l-453 -825v-555z" />
    <glyph glyph-name="Zacute" unicode="&#x179;" horiz-adv-x="1107" 
d="M412 1513l198 265h224l-230 -265h-192zM72 0v174l719 1016h-687v190h926v-176l-719 -1014h719v-190h-958z" />
    <glyph glyph-name="zacute" unicode="&#x17a;" horiz-adv-x="919" 
d="M303 1116l199 264h223l-229 -264h-193zM70 0v162l542 657h-520v172h752v-157l-537 -662h533v-172h-770z" />
    <glyph glyph-name="Zdotaccent" unicode="&#x17b;" horiz-adv-x="1107" 
d="M473 1585v236h191v-236h-191zM72 0v174l719 1016h-687v190h926v-176l-719 -1014h719v-190h-958z" />
    <glyph glyph-name="zdotaccent" unicode="&#x17c;" horiz-adv-x="919" 
d="M371 1188v235h190v-235h-190zM70 0v162l542 657h-520v172h752v-157l-537 -662h533v-172h-770z" />
    <glyph glyph-name="Zcaron" unicode="&#x17d;" horiz-adv-x="1107" 
d="M254 1788h188l129 -146l129 146h189l-219 -270h-199zM72 0v174l719 1016h-687v190h926v-176l-719 -1014h719v-190h-958z" />
    <glyph glyph-name="zcaron" unicode="&#x17e;" horiz-adv-x="919" 
d="M154 1386h188l129 -145l129 145h188l-219 -270h-198zM70 0v162l542 657h-520v172h752v-157l-537 -662h533v-172h-770z" />
    <glyph glyph-name="longs" unicode="&#x17f;" horiz-adv-x="657" 
d="M478 1399q50 0 130 -10v-164h-106q-54 0 -78 -26t-25 -93v-1106h-188v819h-162v172h162v96q0 87 18 147q50 165 249 165z" />
    <glyph glyph-name="Scommaaccent" unicode="&#x218;" horiz-adv-x="1179" 
d="M467 -473q-26 0 -74 4v115h39q54 0 70 20q32 37 30 109v116h162v-100q0 -264 -227 -264zM574 162q227 0 298 127q23 41 23 98t-24 95q-43 69 -224 115l-219 56q-228 59 -297 235q-25 60 -25 140t36 150q71 142 249 199q88 28 187 28q328 0 449 -228q45 -84 54 -190h-209
q-15 159 -157 212q-54 20 -123 20q-134 0 -208 -52q-75 -52 -75 -143q0 -54 24 -88q41 -57 219 -105l212 -53q236 -60 310 -241q26 -67 26 -157q0 -183 -145 -295t-387 -112q-243 0 -385 151q-113 120 -130 296h211q11 -112 83 -178q83 -80 227 -80z" />
    <glyph glyph-name="scommaaccent" unicode="&#x219;" horiz-adv-x="921" 
d="M354 -473q-27 0 -73 4v115h38q54 0 70 20q31 36 31 109v116h162v-100q0 -264 -228 -264zM850 285q0 -130 -105 -215q-105 -84 -280 -83t-282 91t-113 231h190q5 -71 55 -112q49 -41 147 -41t150 33t52 76t-12 63q-22 37 -141 68l-161 42q-256 64 -256 271q0 117 92 206
t268 90q175 1 274 -88t110 -235h-191q-13 156 -198 160q-121 0 -159 -80q-41 -89 60 -129q37 -14 162 -44t182 -58q156 -75 156 -246z" />
    <glyph glyph-name="circumflex" unicode="&#x2c6;" horiz-adv-x="911" 
d="M139 1110l219 270h197l219 -270h-188l-131 143l-127 -143h-189z" />
    <glyph glyph-name="caron" unicode="&#x2c7;" horiz-adv-x="911" 
d="M139 1380h189l129 -145l129 145h188l-219 -270h-199z" />
    <glyph glyph-name="breve" unicode="&#x2d8;" horiz-adv-x="720" 
d="M109 1366h141q0 -52 32 -86q32 -35 68 -35q35 0 65 13t45 47t15 61h143q0 -110 -75 -184t-180 -74q-106 0 -180 72t-74 186z" />
    <glyph glyph-name="dotaccent" unicode="&#x2d9;" horiz-adv-x="544" 
d="M180 1145v235h191v-235h-191z" />
    <glyph glyph-name="ring" unicode="&#x2da;" horiz-adv-x="634" 
d="M311 1401q-28 1 -59 -29t-31 -69t22 -63q36 -38 75 -38t70 29q32 29 32 60t-8 49t-22 32t-32 22t-47 7zM173 1447q60 60 147 60q88 -1 148 -61t60 -146t-60 -145t-148 -59q-87 0 -147 60t-60 146t60 145z" />
    <glyph glyph-name="ogonek" unicode="&#x2db;" horiz-adv-x="479" 
d="M311 -473q-229 0 -229 264v100h164v-116q0 -73 24 -102t76 -27h39v-115q-48 -4 -74 -4z" />
    <glyph glyph-name="tilde" unicode="&#x2dc;" horiz-adv-x="1007" 
d="M375 1389q45 0 137 -42l60 -29q28 -13 48 -13q32 0 52 26q19 26 24 58h152q-27 -167 -134 -218q-38 -18 -91 -18t-140 42l-61 29q-29 13 -51 13q-52 0 -70 -80h-151q48 232 225 232z" />
    <glyph glyph-name="hungarumlaut" unicode="&#x2dd;" horiz-adv-x="948" 
d="M426 1100l207 270h213l-256 -270h-164zM102 1100l209 270h211l-254 -270h-166z" />
    <glyph glyph-name="endash" unicode="&#x2013;" horiz-adv-x="1202" 
d="M106 469v174h986v-174h-986z" />
    <glyph glyph-name="emdash" unicode="&#x2014;" horiz-adv-x="1538" 
d="M-12 471v174h1550v-174h-1550z" />
    <glyph glyph-name="quoteleft" unicode="&#x2018;" horiz-adv-x="509" 
d="M152 932v170q0 186 89 248q64 45 189 30v-112h-35q-63 0 -63 -113v-223h-180z" />
    <glyph glyph-name="quoteright" unicode="&#x2019;" horiz-adv-x="509" 
d="M80 1044h35q33 0 48 23t15 80v233h180v-170q0 -183 -89 -248q-64 -45 -189 -30v112z" />
    <glyph glyph-name="quotesinglbase" unicode="&#x201a;" horiz-adv-x="509" 
d="M80 -106h35q33 0 48 22t15 80v235h180v-172q0 -183 -89 -248q-64 -45 -189 -30v113z" />
    <glyph glyph-name="quotedblleft" unicode="&#x201c;" horiz-adv-x="847" 
d="M489 932v170q0 185 90 248q64 45 189 30v-112h-35q-63 0 -63 -113v-223h-181zM152 932v170q0 186 89 248q64 45 189 30v-112h-35q-63 0 -63 -113v-223h-180z" />
    <glyph glyph-name="quotedblright" unicode="&#x201d;" horiz-adv-x="849" 
d="M420 1044h35q33 0 48 23t15 80v233h180v-170q0 -183 -89 -248q-64 -45 -189 -30v112zM80 1044h35q33 0 48 23t15 80v233h180v-170q0 -183 -89 -248q-64 -45 -189 -30v112z" />
    <glyph glyph-name="quotedblbase" unicode="&#x201e;" horiz-adv-x="849" 
d="M420 -106h35q33 0 48 22t15 80v235h180v-172q0 -183 -89 -248q-64 -45 -189 -30v113zM80 -106h35q33 0 48 22t15 80v235h180v-172q0 -183 -89 -248q-64 -45 -189 -30v113z" />
    <glyph glyph-name="bullet" unicode="&#x2022;" horiz-adv-x="671" 
d="M214 567q-52 52 -52 124t52 126q53 53 126 52q72 -1 124 -53t52 -124t-52 -124t-124 -52q-73 0 -126 51z" />
    <glyph glyph-name="ellipsis" unicode="&#x2026;" horiz-adv-x="1474" 
d="M1110 0v272h195v-272h-195zM639 0v272h195v-272h-195zM166 0v272h194v-272h-194z" />
    <glyph glyph-name="guilsinglleft" unicode="&#x2039;" horiz-adv-x="632" 
d="M78 475v162l483 301v-186l-313 -199l313 -201v-184z" />
    <glyph glyph-name="guilsinglright" unicode="&#x203a;" horiz-adv-x="632" 
d="M78 168v184l313 203l-313 197v186l483 -301v-162z" />
    <glyph glyph-name="fraction" unicode="&#x2044;" horiz-adv-x="430" 
d="M-207 0l705 1380h139l-703 -1380h-141z" />
    <glyph glyph-name="uni2074" unicode="&#x2074;" horiz-adv-x="651" 
d="M375 1118v314l-215 -314h215zM23 997v107l342 493h143v-479h104v-121h-104v-159h-133v159h-352z" />
    <glyph glyph-name="Euro" unicode="&#x20ac;" horiz-adv-x="1333" 
d="M815 -23q-422 0 -498 500h-231v133h219q-6 83 0 168h-219v133h233q63 346 307 457q83 37 181 37t173 -27q148 -53 223 -188q36 -66 50 -141h-198q-17 80 -79 126t-136 46q-262 0 -322 -310h414v-133h-428q-7 -61 0 -168h428v-133h-414q41 -254 198 -301q48 -14 122 -14
t136 49t81 131h200q-46 -249 -271 -336q-75 -29 -169 -29z" />
    <glyph glyph-name="trademark" unicode="&#x2122;" horiz-adv-x="1353" 
d="M635 702v676h137l174 -379l172 379h135v-676h-147v334l-100 -217h-119l-101 221v-338h-151zM39 1237v141h512v-141h-180v-535h-152v535h-180z" />
    <glyph glyph-name="minus" unicode="&#x2212;" horiz-adv-x="1089" 
d="M78 469v176h948v-176h-948z" />
    <glyph glyph-name="uniE000" unicode="&#xe000;" horiz-adv-x="993" 
d="M0 993h993v-993h-993v993z" />
    <glyph glyph-name="uniFB01" unicode="&#xfb01;" horiz-adv-x="1112" 
d="M784 0v991h189v-991h-189zM782 1145v235h193v-235h-193zM201 1087q0 312 283 312q51 0 116 -10v-164h-108q-54 0 -78 -26t-25 -93v-115h211v-172h-211v-819h-188v819h-150v172h150v96z" />
    <glyph glyph-name="uniFB02" unicode="&#xfb02;" horiz-adv-x="1148" 
d="M1016 -6q-112 0 -167 50q-73 64 -73 218v1118h189v-1124q0 -57 22 -75t68 -17h30v-160q-21 -10 -69 -10zM201 1087q0 312 283 312q51 0 116 -10v-164h-108q-54 0 -78 -26t-25 -93v-115h211v-172h-211v-819h-188v819h-150v172h150v96z" />
    <glyph glyph-name="uniFB03" unicode="&#xfb03;" horiz-adv-x="1751" 
d="M197 1087q0 312 283 312q51 0 116 -10v-164h-109q-54 0 -78 -26t-24 -93v-115h211v-172h-211v-819h-188v819h-150v172h150v96zM840 1087q0 312 283 312q51 0 116 -10v-164h-109q-54 0 -78 -26t-24 -93v-115h211v-172h-211v-819h-188v819h-150v172h150v96zM1423 0v991h189
v-991h-189zM1421 1145v235h193v-235h-193z" />
    <glyph glyph-name="uniFB04" unicode="&#xfb04;" horiz-adv-x="1787" 
d="M197 1087q0 312 283 312q51 0 116 -10v-164h-109q-54 0 -78 -26t-24 -93v-115h211v-172h-211v-819h-188v819h-150v172h150v96zM840 1087q0 312 283 312q51 0 116 -10v-164h-109q-54 0 -78 -26t-24 -93v-115h211v-172h-211v-819h-188v819h-150v172h150v96zM1656 -6
q-112 0 -168 50q-73 64 -73 218v1118h189v-1124q0 -57 22 -75t68 -17h30v-160q-20 -10 -68 -10z" />
    </font>
</defs>
</svg>
